<svg fill="none" xmlns="http://www.w3.org/2000/svg" viewBox="0 0 419 748"><path fill-rule="evenodd" clip-rule="evenodd" d="M235.547 415.84v306.8c0 33.265-51.75 33.265-51.75 0v-306.8C80.297 404.751.824 316.037.824 208.84.824 94.252 95.079 0 209.664 0c116.437 0 208.84 94.255 208.84 208.84 0 107.193-79.473 195.907-182.973 207h.016Zm-86.864-279.08c-25.875 33.265-31.416 77.625-18.484 116.437 9.239 22.178-24.027 33.266-33.266 11.089-16.636-49.901-9.24-107.193 24.027-149.707 12.937-16.636 42.511 3.698 27.724 22.178l-.001.003Z" fill="red"/></svg>