<svg viewBox="0 0 67 48" fill="none" xmlns="http://www.w3.org/2000/svg">
<g clip-path="url(#clip0_2752_27948)">
<path d="M66.7 0H0V47.4H66.7V0Z" fill="black"/>
<path d="M23.3 7.30078H22.1V16.9008H23.3V7.30078Z" fill="white"/>
<path d="M28.3 8.30078V7.30078H36V8.30078H32.8V16.8008H31.6V8.30078H28.3Z" fill="white"/>
<path d="M13.3 17.0004C11.9 17.1004 10.6 16.6004 9.59999 15.6004C8.69999 14.7004 8.29999 13.4004 8.29999 12.2004C8.29999 11.4004 8.49999 10.5004 8.79999 9.80041C9.19999 9.00041 9.79999 8.40041 10.5 8.00041C11.3 7.50041 12.3 7.20041 13.3 7.30041C14.6 7.30041 15.9 7.80041 16.8 8.70041L16 9.50041C15.3 8.80041 14.3 8.40041 13.3 8.40041C12.2 8.30041 11.2 8.70041 10.5 9.50041C9.79999 10.3004 9.49999 11.2004 9.49999 12.3004C9.49999 13.3004 9.89999 14.2004 10.5 15.0004C11.2 15.8004 12.3 16.1004 13.3 16.1004C14.3 16.1004 15.3 15.7004 16 15.0004L16.8 15.8004C15.9 16.5004 14.6 17.0004 13.3 17.0004Z" fill="white"/>
<path d="M40.1 7.30078H41.6L44.4 11.8008L47.4 7.30078H48.8L45.1 12.9008V16.8008H43.8V12.9008L40.1 7.30078Z" fill="white"/>
<path d="M8.29999 21H12.1V21.7H8.89999V23.4H12V24H8.89999V25.9H12.2V26.5H8.29999V21Z" fill="white"/>
<path d="M19.4 21V21.1L17.6 23.7L19.5 26.5H18.8L17.1 24.2L15.5 26.5H14.7L16.7 23.7L14.9 21.1V21H15.6L17.1 23.3L18.7 21H19.4Z" fill="white"/>
<path d="M23.1 26.5H22.4V21H24.9C25.2 21 25.5 21.1 25.8 21.2C26.1 21.3 26.3 21.5 26.4 21.7C26.5 21.9 26.6 22.2 26.7 22.4C26.8 22.7 26.8 22.9 26.7 23.2C26.6 23.5 26.5 23.7 26.4 23.9C26.2 24.1 26 24.3 25.8 24.4C25.5 24.5 25.2 24.6 24.9 24.6H23.1V26.5ZM25.6 23.9C25.8 23.8 25.9 23.6 26 23.4C26.1 23.2 26.1 23 26.1 22.8C26.1 22.6 26.1 22.4 26 22.2C25.9 22 25.8 21.8 25.6 21.7C25.4 21.6 25.2 21.5 24.9 21.5H23.1V24H24.9C25.1 24.1 25.4 24.1 25.6 23.9Z" fill="white"/>
<path d="M31.8 24.5H30.5V26.5H29.8V21H32.3C32.8 21 33.3 21.2 33.7 21.5C34 21.8 34.2 22.3 34.2 22.7C34.2 23.1 34.1 23.5 33.8 23.8C33.5 24.1 33.1 24.3 32.6 24.3L34.4 26.3H33.5L31.8 24.5ZM33.1 23.6C33.3 23.4 33.4 23.1 33.4 22.8C33.4 22.5 33.3 22.2 33.1 22C32.9 21.8 32.6 21.6 32.2 21.6H30.4V23.9H32.2C32.6 24 32.9 23.8 33.1 23.6Z" fill="white"/>
<path d="M37.4 21H41.2V21.7H38.1V23.4H41.1V24H38.1V25.9H41.4V26.5H37.4V21Z" fill="white"/>
<path d="M47.3 21.7004C47 21.6004 46.7 21.5004 46.4 21.5004C46.1 21.5004 45.7 21.6004 45.4 21.7004C45.1 21.8004 45 22.1004 45 22.4004C45 22.5004 45 22.7004 45.1 22.8004C45.2 22.9004 45.3 23.0004 45.4 23.1004C45.5 23.2004 45.7 23.2004 45.9 23.3004C46.1 23.3004 46.2 23.4004 46.5 23.4004L47.2 23.5004C47.4 23.5004 47.6 23.6004 47.8 23.7004C48 23.8004 48.2 23.9004 48.3 24.0004C48.4 24.1004 48.5 24.3004 48.6 24.4004C48.7 24.6004 48.7 24.8004 48.7 25.0004C48.7 25.3004 48.6 25.5004 48.5 25.8004C48.4 26.0004 48.2 26.2004 48 26.3004C47.8 26.4004 47.5 26.5004 47.3 26.6004C47 26.7004 46.8 26.7004 46.5 26.7004C46 26.7004 45.5 26.6004 45.1 26.4004C44.7 26.2004 44.4 25.8004 44.2 25.4004L44.8 25.1004C45 25.4004 45.2 25.7004 45.5 25.8004C45.8 26.0004 46.2 26.0004 46.5 26.0004C46.7 26.0004 46.9 26.0004 47 26.0004C47.2 26.0004 47.3 25.9004 47.5 25.9004C47.7 25.8004 47.8 25.7004 47.9 25.6004C48 25.5004 48 25.3004 48 25.1004C48 25.0004 48 24.8004 47.9 24.7004C47.8 24.6004 47.7 24.5004 47.5 24.4004C47.3 24.3004 47.2 24.3004 47 24.2004L46.4 24.1004C46.2 24.1004 46 24.0004 45.8 24.0004C45.6 24.0004 45.4 23.9004 45.3 23.8004C45.1 23.7004 45 23.6004 44.8 23.5004C44.7 23.4004 44.6 23.3004 44.5 23.1004C44.4 22.9004 44.4 22.7004 44.4 22.5004C44.4 22.2004 44.5 22.0004 44.6 21.8004C44.7 21.6004 44.9 21.4004 45.1 21.3004C45.3 21.2004 45.5 21.1004 45.8 21.0004C46 20.9004 46.3 20.9004 46.5 20.9004C46.9 20.9004 47.3 21.0004 47.7 21.1004C48.1 21.3004 48.4 21.5004 48.5 21.9004L48 22.2004C47.7 22.0004 47.5 21.8004 47.3 21.7004Z" fill="white"/>
<path d="M54.5 21.7004C54.2 21.6004 53.9 21.5004 53.6 21.5004C53.3 21.5004 52.9 21.6004 52.6 21.7004C52.3 21.8004 52.2 22.1004 52.2 22.4004C52.2 22.5004 52.2 22.7004 52.3 22.8004C52.4 22.9004 52.5 23.0004 52.6 23.1004C52.8 23.2004 52.9 23.2004 53.1 23.3004C53.3 23.3004 53.4 23.4004 53.7 23.4004L54.4 23.5004C54.6 23.5004 54.8 23.6004 55 23.7004C55.2 23.8004 55.4 23.9004 55.5 24.0004C55.6 24.1004 55.7 24.3004 55.8 24.4004C55.9 24.6004 55.9 24.8004 55.9 25.0004C55.9 25.3004 55.8 25.5004 55.7 25.8004C55.6 26.0004 55.4 26.2004 55.2 26.3004C55 26.4004 54.7 26.5004 54.5 26.6004C54.2 26.7004 54 26.7004 53.7 26.7004C53.2 26.7004 52.7 26.6004 52.3 26.4004C51.9 26.2004 51.6 25.8004 51.4 25.4004L52 25.1004C52.2 25.4004 52.4 25.7004 52.7 25.8004C53 26.0004 53.4 26.0004 53.7 26.0004C53.9 26.0004 54 26.0004 54.2 26.0004C54.4 26.0004 54.5 25.9004 54.7 25.9004C54.9 25.8004 55 25.7004 55.1 25.6004C55.2 25.5004 55.2 25.3004 55.2 25.1004C55.2 25.0004 55.2 24.8004 55.1 24.7004C55 24.6004 54.9 24.5004 54.7 24.4004C54.5 24.3004 54.4 24.3004 54.2 24.2004L53.6 24.1004C53.4 24.1004 53.2 24.0004 53 24.0004C52.8 24.0004 52.6 23.9004 52.5 23.8004C52.3 23.7004 52.2 23.6004 52 23.5004C51.9 23.4004 51.8 23.3004 51.7 23.1004C51.6 22.9004 51.6 22.7004 51.6 22.5004C51.6 22.2004 51.7 22.0004 51.8 21.8004C51.9 21.6004 52.1 21.4004 52.3 21.3004C52.5 21.2004 52.7 21.1004 53 21.0004C53.2 20.9004 53.5 20.9004 53.7 20.9004C54.1 20.9004 54.5 21.0004 54.9 21.1004C55.3 21.3004 55.6 21.5004 55.7 21.9004L55.2 22.2004C55 22.0004 54.7 21.8004 54.5 21.7004Z" fill="white"/>
<path d="M12.8 36.9006H10.1V39.7006H8.29999V30.1006H12.8C14.7 30.1006 16.2 31.6006 16.2 33.5006C16.1 35.4006 14.6 36.9006 12.8 36.9006ZM10.1 35.3006H12.8C13.7 35.4006 14.6 34.7006 14.6 33.7006C14.6 32.7006 14 32.0006 13 31.9006C12.9 31.9006 12.8 31.9006 12.7 31.9006H9.99999V35.3006H10.1Z" fill="white"/>
<path d="M23.7 30.2002V38.1002H28.6V39.7002H21.9V30.2002H23.7Z" fill="white"/>
<path d="M42 30.2002V35.7002C42 38.5002 40.3 40.0002 37.9 40.0002C35.7 40.1002 33.8 38.5002 33.7 36.3002C33.7 36.1002 33.7 35.9002 33.7 35.8002V30.3002H35.5V35.8002C35.3 37.1002 36.2 38.3002 37.5 38.4002C37.6 38.4002 37.8 38.4002 37.9 38.4002C39.4 38.4002 40.2 37.4002 40.2 35.8002V30.3002H42V30.2002Z" fill="white"/>
<path d="M54.1 32.5001C53.6 31.8001 52.7 31.4001 51.8 31.4001C50.5 31.4001 49.8 32.0001 49.8 32.7001C49.8 33.4001 50.8 33.8001 51.9 33.9001C53.9 34.1001 55.7 34.7001 55.7 36.9001C55.7 39.0001 53.8 39.9001 51.7 39.9001C49.7 39.9001 48.2 39.3001 47.5 37.6L49 36.8001C49.5 37.8001 50.6 38.4001 51.7 38.3001C52.8 38.3001 53.9 37.9001 53.9 36.9001C53.9 35.9001 53 35.6001 51.7 35.5001C49.7 35.3001 47.9 34.7001 47.9 32.6001C47.9 30.6001 49.8 29.8001 51.6 29.8001C53.1 29.6001 54.6 30.4001 55.4 31.7001L54.1 32.5001Z" fill="white"/>
<path d="M58.8 37C59 37 59.3 37.1 59.5 37.2C59.7 37.3 59.9 37.5 60 37.7C60.1 37.9 60.2 38.2 60.2 38.4C60.2 38.6 60.1 38.9 60 39.1C59.9 39.3 59.7 39.5 59.5 39.6C59.3 39.7 59 39.8 58.8 39.8C58.6 39.8 58.3 39.7 58.1 39.6C57.9 39.5 57.7 39.3 57.6 39.1C57.5 38.9 57.4 38.6 57.4 38.4C57.4 38.1 57.5 37.9 57.6 37.7C57.7 37.5 57.9 37.3 58.1 37.2C58.4 37 58.6 37 58.8 37ZM58.8 37.2C58.6 37.2 58.4 37.3 58.2 37.4C58 37.5 57.9 37.7 57.8 37.8C57.7 38 57.6 38.2 57.6 38.4C57.6 38.6 57.7 38.8 57.8 39C57.9 39.2 58.1 39.3 58.2 39.4C58.4 39.5 58.6 39.6 58.8 39.6C59 39.6 59.2 39.5 59.4 39.4C59.6 39.3 59.7 39.1 59.8 39C59.9 38.8 60 38.6 60 38.4C60 38.2 59.9 38 59.8 37.8C59.7 37.6 59.5 37.5 59.4 37.4C59.3 37.3 59.1 37.2 58.8 37.2ZM58.2 39.2V37.7H58.7C58.8 37.7 59 37.7 59.1 37.7C59.2 37.7 59.3 37.8 59.3 37.8C59.3 37.9 59.4 37.9 59.4 38C59.4 38.1 59.4 38.2 59.3 38.3C59.2 38.4 59.1 38.4 59 38.4L59.1 38.5C59.2 38.6 59.3 38.7 59.3 38.8L59.5 39.1H59.3L59.2 38.9C59.1 38.8 59 38.7 58.9 38.6C58.8 38.6 58.8 38.5 58.7 38.6H58.5V39.2H58.2ZM58.5 38.3H58.8C58.9 38.3 59 38.3 59.1 38.2C59.2 38.2 59.2 38.1 59.2 38V37.9L59.1 37.8C59 37.8 58.9 37.8 58.9 37.8H58.6L58.5 38.3Z" fill="white"/>
</g>
<defs>
<clipPath id="clip0_2752_27948">
<rect width="66.7" height="47.4" fill="white"/>
</clipPath>
</defs>
</svg>
