<svg fill="none" xmlns="http://www.w3.org/2000/svg" viewBox="0 0 155 40"><path fill="#fff" d="M0 0h154.054v39.054H0z"/><path d="M10 15.061v-.027c0-2.764 2.07-5.027 5.012-5.027 1.792 0 2.875.624 3.806 1.514l-1.097 1.264c-.777-.723-1.61-1.208-2.722-1.208-1.861 0-3.207 1.528-3.207 3.43v.028c0 1.903 1.347 3.457 3.207 3.457 1.194 0 1.959-.486 2.792-1.264l1.097 1.111c-1.014 1.056-2.125 1.722-3.944 1.722-2.833 0-4.944-2.209-4.944-5ZM24.526 10.173h1.708v9.722h-1.708v-9.722ZM34.969 11.756h-3.083v-1.583h7.887v1.583H36.69v8.137H34.97v-8.137ZM48.189 16.06l-3.86-5.888h2.014l2.721 4.305 2.75-4.305h1.959l-3.86 5.846v3.874H48.19v-3.831h-.002ZM65.048 15.061v-.027c0-2.764 2.07-5.027 5.013-5.027 1.792 0 2.874.624 3.806 1.514l-1.097 1.264c-.778-.723-1.61-1.208-2.722-1.208-1.861 0-3.207 1.528-3.207 3.43v.028c0 1.903 1.347 3.457 3.207 3.457 1.194 0 1.959-.486 2.791-1.264l1.098 1.111c-1.015 1.056-2.125 1.722-3.945 1.722-2.832 0-4.944-2.209-4.944-5ZM79.476 10.173h7.207v1.528h-5.5v2.527h4.875v1.527h-4.875v2.611h5.569v1.527h-7.277v-9.72h.001ZM92.312 10.173h1.583l5.207 6.722v-6.722h1.68v9.722h-1.43l-5.36-6.916v6.916h-1.68v-9.722ZM109.504 11.756h-3.083v-1.583h7.888v1.583h-3.083v8.137h-1.722v-8.137ZM119.947 10.173h4.333c1.222 0 2.18.362 2.806.972.514.527.805 1.25.805 2.097v.027c0 1.597-.958 2.556-2.318 2.944l2.624 3.68h-2.014l-2.389-3.388h-2.138v3.388h-1.709v-9.72Zm4.207 4.819c1.222 0 2-.639 2-1.625v-.028c0-1.041-.75-1.61-2.014-1.61h-2.485v3.263h2.499ZM133.834 15.061v-.027c0-2.736 2.111-5.027 5.097-5.027s5.068 2.263 5.068 4.998v.029c0 2.736-2.111 5.027-5.096 5.027-2.986 0-5.069-2.264-5.069-5Zm8.374 0v-.027c0-1.889-1.374-3.459-3.305-3.459s-3.278 1.542-3.278 3.43v.029c0 1.888 1.375 3.457 3.306 3.457 1.93.001 3.277-1.541 3.277-3.43ZM96.63 25.425h1.777c.437 0 .781.12 1 .34a.875.875 0 0 1 .264.65v.01c0 .433-.23.673-.504.827.444.17.717.427.717.941v.011c0 .7-.57 1.05-1.434 1.05h-1.82v-3.83Zm1.597 1.547c.37 0 .606-.12.606-.405v-.011c0-.251-.197-.394-.552-.394h-.832v.809h.778Zm.223 1.542c.373 0 .596-.13.596-.416v-.01c0-.257-.192-.417-.623-.417h-.974v.843h1.001ZM102.319 27.743l-1.471-2.319h.984l.914 1.537.93-1.537h.957l-1.471 2.303v1.526h-.843v-1.51ZM108.457 25.424h.908l1.006 1.62 1.007-1.62h.908v3.829h-.836v-2.5l-1.078 1.635h-.021l-1.067-1.619v2.484h-.825v-3.829h-.002ZM115.345 25.396h.776l1.641 3.856h-.88l-.351-.86h-1.618l-.351.86h-.858l1.641-3.856Zm.886 2.254-.508-1.241-.509 1.241h1.017ZM119.181 25.424h1.75c.487 0 .864.137 1.115.389.213.213.328.514.328.875v.011c0 .618-.333 1.007-.821 1.187l.936 1.368h-.985l-.821-1.225h-.662v1.225h-.842v-3.83h.002Zm1.695 1.86c.411 0 .645-.219.645-.542v-.011c0-.361-.252-.547-.661-.547h-.837v1.1h.853ZM123.964 25.424h1.75c.486 0 .864.137 1.115.389.213.213.328.514.328.875v.011c0 .618-.333 1.007-.821 1.187l.935 1.368h-.984l-.821-1.225h-.662v1.225h-.843v-3.83h.003Zm1.695 1.86c.41 0 .645-.219.645-.542v-.011c0-.361-.252-.547-.661-.547h-.837v1.1h.853ZM128.784 25.424h.843v3.829h-.843v-3.829ZM131.244 27.349v-.011c0-1.089.858-1.98 2.04-1.98 1.181 0 2.029.88 2.029 1.969v.01c0 1.089-.859 1.98-2.04 1.98-1.182 0-2.029-.88-2.029-1.968Zm3.188 0v-.011c0-.656-.481-1.203-1.159-1.203s-1.148.536-1.148 1.192v.01c0 .657.481 1.204 1.159 1.204s1.148-.536 1.148-1.192ZM137.617 26.2h-1.164v-.777h3.172v.777h-1.165v3.052h-.843V26.2ZM141.99 26.2h-1.165v-.777h3.173v.777h-1.165v3.052h-.843V26.2Z" fill="#676868"/></svg>