<svg viewBox="0 0 148 45" fill="none" xmlns="http://www.w3.org/2000/svg">
<rect width="147.8" height="44.9" fill="white"/>
<g clip-path="url(#clip0_2753_28013)">
<path d="M82.6 36.4002C81.6663 36.1958 80.8036 35.7472 80.1 35.1002L81 33.0002C81.6499 33.5371 82.3967 33.9444 83.2 34.2002C84.0377 34.4798 84.9169 34.6151 85.8 34.6002C86.6298 34.6441 87.4567 34.4718 88.2 34.1002C88.4528 33.9673 88.6624 33.7649 88.8041 33.5169C88.9458 33.2689 89.0138 32.9856 89 32.7002C89.0086 32.5147 88.9774 32.3294 88.9084 32.1569C88.8394 31.9844 88.7342 31.8287 88.6 31.7002C88.2685 31.3854 87.8507 31.1765 87.4 31.1002L85.6 30.5002L82.9 29.8002C82.2028 29.5204 81.5848 29.074 81.1 28.5002C80.5406 27.869 80.2531 27.0424 80.3 26.2002C80.3333 25.4177 80.575 24.6582 81 24.0002C81.5154 23.3252 82.2076 22.806 83 22.5002C84.0079 22.0619 85.1017 21.8568 86.2 21.9002C87.0755 21.8954 87.9485 21.9962 88.8 22.2002C89.6091 22.3778 90.3852 22.6815 91.1 23.1002L90.2 25.2002L88.2 24.4002L86.2 24.1002C85.3554 24.0269 84.5107 24.2381 83.8 24.7002C83.5546 24.8419 83.3513 25.0461 83.2107 25.2921C83.0702 25.5381 82.9974 25.8169 83 26.1002C82.9959 26.295 83.0393 26.4878 83.1264 26.662C83.2135 26.8363 83.3417 26.9867 83.5 27.1002C83.807 27.3941 84.1866 27.6012 84.6 27.7002L86.5 28.3002L89.2 29.0002C89.8971 29.2801 90.5151 29.7264 91 30.3002C91.4685 30.9368 91.7145 31.7099 91.7 32.5002C91.7016 33.2742 91.4943 34.0343 91.1 34.7002C90.5982 35.4122 89.9047 35.967 89.1 36.3002C88.0539 36.7283 86.9298 36.9327 85.8 36.9002C84.7148 36.8881 83.6371 36.7197 82.6 36.4002Z" fill="#741C2E"/>
<path d="M102.7 26.4004V36.6004H100.4V35.3004C100.051 35.7961 99.5641 36.1785 99 36.4004C98.4251 36.6289 97.8174 36.7639 97.2 36.8004C96.5975 36.8318 95.995 36.7417 95.4281 36.5356C94.8612 36.3294 94.3415 36.0114 93.9 35.6004C93.4737 35.1695 93.1457 34.6515 92.9385 34.0818C92.7314 33.5122 92.65 32.9045 92.7 32.3004V26.4004H95.1V31.9004C95.0616 32.28 95.1042 32.6635 95.2249 33.0254C95.3455 33.3874 95.5415 33.7197 95.8 34.0004C96.0234 34.2231 96.2886 34.3995 96.5803 34.5196C96.872 34.6397 97.1845 34.7012 97.5 34.7004C97.8856 34.7135 98.27 34.6494 98.6306 34.5121C98.9912 34.3747 99.3207 34.1667 99.6 33.9004C100.114 33.249 100.364 32.4278 100.3 31.6004V26.4004H102.7Z" fill="#741C2E"/>
<path d="M106.695 26.2833L104.295 26.2959L104.349 36.5058L106.748 36.4932L106.695 26.2833Z" fill="#741C2E"/>
<path d="M125.9 32.1999H117.9C117.941 32.562 118.061 32.9107 118.251 33.2216C118.441 33.5326 118.697 33.7982 119 33.9999C119.655 34.4204 120.423 34.6299 121.2 34.5999C121.718 34.6229 122.235 34.5368 122.717 34.3473C123.199 34.1579 123.636 33.8692 124 33.4999L125.3 34.9999C124.809 35.5435 124.191 35.956 123.5 36.1999C122.743 36.53 121.926 36.7002 121.1 36.6999C120.087 36.7436 119.082 36.501 118.2 35.9999C117.362 35.6235 116.662 34.9941 116.2 34.1999C115.715 33.3846 115.473 32.4481 115.5 31.4999C115.473 30.5518 115.715 29.6153 116.2 28.7999C116.576 27.987 117.209 27.3196 118 26.8999C118.827 26.4447 119.756 26.2061 120.7 26.2061C121.644 26.2061 122.573 26.4447 123.4 26.8999C124.191 27.3079 124.85 27.9321 125.3 28.6999C125.719 29.5724 125.925 30.5322 125.9 31.4999V32.1999ZM118.8 28.7999C118.308 29.2832 117.992 29.9165 117.9 30.5999H123.6C123.509 29.9165 123.192 29.2832 122.7 28.7999C122.159 28.3671 121.492 28.1215 120.8 28.0999C120.073 28.0994 119.368 28.3462 118.8 28.7999Z" fill="#741C2E"/>
<path d="M106.577 22.8839L104.177 22.8965L104.19 25.2565L106.59 25.2439L106.577 22.8839Z" fill="#70132F"/>
<path d="M111.5 28.4004H115.2C115.588 27.6296 116.133 26.9484 116.8 26.4004H111.5V28.4004Z" fill="#70132F"/>
<path d="M110.5 28.3996V33.1996C110.477 33.6207 110.582 34.0388 110.8 34.3996C111.124 34.6162 111.511 34.7214 111.9 34.6996C112.369 34.7414 112.836 34.5978 113.2 34.2996L114 35.9996C113.7 36.2255 113.361 36.3949 113 36.4996L111.7 36.6996C110.748 36.7557 109.813 36.432 109.1 35.7996C108.78 35.4717 108.534 35.0788 108.378 34.6474C108.223 34.2161 108.162 33.7565 108.2 33.2996V24.0996H110.6V28.3996H110.5Z" fill="#741C2E"/>
<path d="M128.7 36.3004C127.999 36.1301 127.325 35.8607 126.7 35.5004L127.6 33.7004C128.09 34.0456 128.63 34.3152 129.2 34.5004C129.853 34.6658 130.527 34.7332 131.2 34.7004C131.718 34.7416 132.237 34.6377 132.7 34.4004C133.1 34.2004 133.2 34.0004 133.2 33.7004C133.215 33.5819 133.195 33.4615 133.142 33.3546C133.088 33.2477 133.004 33.1592 132.9 33.1004L132.2 32.7004L130.9 32.4004L128.9 31.8004C128.366 31.621 127.885 31.3118 127.5 30.9004C127.293 30.6907 127.133 30.4399 127.03 30.1642C126.926 29.8886 126.882 29.5943 126.9 29.3004C126.911 28.7304 127.085 28.1754 127.4 27.7004C127.856 27.2327 128.4 26.859 129 26.6004C129.797 26.2966 130.648 26.1604 131.5 26.2004C132.173 26.1677 132.847 26.2351 133.5 26.4004C134.095 26.5073 134.669 26.7099 135.2 27.0004L134.5 28.8004C133.576 28.3025 132.549 28.0285 131.5 28.0004C130.942 28.0004 130.392 28.1378 129.9 28.4004C129.757 28.4823 129.637 28.5982 129.55 28.7378C129.462 28.8773 129.411 29.0362 129.4 29.2004C129.4 29.6004 129.6 29.8004 130 30.0004L131.8 30.5004L133.8 31.0004C134.322 31.204 134.798 31.51 135.2 31.9004C135.546 32.3603 135.722 32.9255 135.7 33.5004C135.722 34.0754 135.546 34.6405 135.2 35.1004C134.802 35.5889 134.285 35.9675 133.7 36.2004C132.9 36.4939 132.051 36.6297 131.2 36.6004C130.357 36.6051 129.518 36.5043 128.7 36.3004Z" fill="#741C2E"/>
<path d="M138.4 33.9997C138.65 33.9761 138.9 34.0475 139.1 34.1997C139.306 34.2747 139.482 34.4152 139.6 34.5997C139.7 34.8221 139.768 35.0579 139.8 35.2997C139.779 35.5438 139.711 35.7815 139.6 35.9997C139.5 36.1997 139.3 36.2997 139.1 36.4997H137.8C137.587 36.3871 137.413 36.2128 137.3 35.9997C137.189 35.7815 137.121 35.5438 137.1 35.2997C137.12 35.0871 137.188 34.8819 137.3 34.6997C137.339 34.5837 137.405 34.4782 137.492 34.3915C137.578 34.3048 137.684 34.2392 137.8 34.1997C137.877 34.1216 137.972 34.0629 138.076 34.0281C138.18 33.9934 138.291 33.9836 138.4 33.9997ZM138.4 34.1997L137.9 34.3997C137.722 34.4799 137.58 34.6221 137.5 34.7997C137.378 34.9383 137.307 35.115 137.3 35.2997C137.32 35.5124 137.388 35.7176 137.5 35.8997C137.6 35.9997 137.7 36.1997 137.9 36.2997H139L139.4 35.8997C139.48 35.7105 139.515 35.5048 139.5 35.2997C139.531 35.1264 139.495 34.9479 139.4 34.7997C139.3 34.5997 139.1 34.3997 139 34.3997L138.4 34.1997ZM137.8 35.9997V34.5997H138.9V34.9997C138.905 35.0539 138.898 35.1085 138.881 35.16C138.864 35.2116 138.836 35.2592 138.8 35.2997H138.7L138.9 35.5997V35.9997H138.7L138.5 35.7997C138.4 35.5997 138.4 35.4997 138.3 35.4997H138V35.9997H137.8ZM138.1 35.1997H138.6C138.7 35.0997 138.7 35.0997 138.7 34.9997H138.1V35.1997Z" fill="#741C2E"/>
<path d="M12.7001 17.4001C12.0501 17.4337 11.4006 17.326 10.7964 17.0843C10.1921 16.8426 9.64751 16.4727 9.20005 16.0001C8.39481 15.1328 7.96368 13.9831 8.00005 12.8001C8.0019 12.0067 8.17233 11.2227 8.50005 10.5001C8.86407 9.76868 9.41633 9.14739 10.1001 8.70013C10.9014 8.28166 11.7964 8.07512 12.7001 8.10013C13.3102 8.07597 13.9187 8.17907 14.4868 8.40288C15.055 8.62669 15.5703 8.96631 16.0001 9.40013L15.2001 10.1001C14.5274 9.45597 13.6314 9.09754 12.7001 9.10013C12.199 9.09106 11.7013 9.18389 11.2371 9.37298C10.773 9.56207 10.3521 9.84347 10.0001 10.2001C9.40086 10.8933 9.08016 11.7841 9.10005 12.7001C9.11109 13.6586 9.46596 14.5813 10.1001 15.3001C10.4343 15.6463 10.8402 15.9152 11.2894 16.0879C11.7385 16.2607 12.22 16.3331 12.7001 16.3001C13.6585 16.2891 14.5812 15.9342 15.3001 15.3001L16.1001 16.0001C15.6531 16.4455 15.1228 16.7984 14.5394 17.0386C13.956 17.2788 13.331 17.4017 12.7001 17.4001Z" fill="#666666"/>
<path d="M22.2 8.2002H21.1V17.2302H22.2V8.2002Z" fill="#666666"/>
<path d="M27 9.2002V8.2002H34.2V9.2002H31.2V17.2002H30V9.2002H27Z" fill="#666666"/>
<path d="M38.1 8.2002H39.5L42.2 12.5002L45 8.2002H46.3L42.8 13.6002V17.2002H41.6V13.6002L38.1 8.2002Z" fill="#666666"/>
<path d="M57.3 8.2002H63.7001V9.2002H58.4001V12.1002H63.4001V13.1002H58.4001V16.2002H63.9001V17.2002H57.3V8.2002Z" fill="#666666"/>
<path d="M75.8 8.2002L72.7 12.6002L75.9 17.2002H74.6L72 13.4002L69.3 17.2002H68L71.2 12.6002L68.2 8.2002H69.5L72 11.9002L74.5 8.2002H75.8Z" fill="#666666"/>
<path d="M81.7 17.1996H80.6V8.19965H84.7C85.248 8.1917 85.7921 8.29371 86.3 8.49965C86.6785 8.74532 87.0159 9.04904 87.3 9.39965C87.5089 9.7807 87.6765 10.183 87.8 10.5996C87.8984 11.0274 87.8984 11.4719 87.8 11.8997C87.6765 12.3163 87.5089 12.7186 87.3 13.0996L86.3 13.9997C85.7921 14.2056 85.248 14.3076 84.7 14.2997H81.7V17.1996ZM85.8 12.9997C85.9664 12.9232 86.1148 12.8123 86.2355 12.6745C86.3561 12.5366 86.4463 12.3748 86.5 12.1996C86.6595 11.9281 86.7294 11.6132 86.7 11.2996C86.7442 10.9534 86.6739 10.6022 86.5 10.2996C86.4463 10.1245 86.3561 9.9627 86.2355 9.82483C86.1148 9.68696 85.9664 9.57615 85.8 9.49965C85.4755 9.28309 85.0895 9.17781 84.7 9.19965H81.7V13.2997H84.7C85.0895 13.3215 85.4755 13.2162 85.8 12.9997Z" fill="#666666"/>
<path d="M96.1 13.9999H93.9V17.1999H92.8V8.19993H96.9C97.7392 8.17348 98.5584 8.45844 99.2 8.99993C99.7118 9.5802 99.996 10.3262 100 11.0999C100.016 11.4474 99.9628 11.7945 99.8426 12.1209C99.7224 12.4472 99.5379 12.7462 99.3 12.9999C99.0635 13.274 98.7722 13.4956 98.4451 13.6505C98.1179 13.8055 97.762 13.8905 97.4 13.8999L100.4 17.1999H98.9L96.1 13.9999ZM98.3 12.3999C98.5005 12.2504 98.6604 12.0532 98.7652 11.8261C98.87 11.5991 98.9163 11.3495 98.9 11.0999C98.8943 10.8537 98.8381 10.6113 98.7349 10.3877C98.6317 10.1641 98.4837 9.96405 98.3 9.79993C98.1294 9.59793 97.914 9.43852 97.671 9.33436C97.428 9.23021 97.164 9.18418 96.9 9.19993H93.9V12.9999H96.9C97.164 13.0157 97.428 12.9697 97.671 12.8655C97.914 12.7613 98.1294 12.6019 98.3 12.3999Z" fill="#666666"/>
<path d="M105.4 8.2002H111.7V9.2002H106.5V12.1002H111.5V13.1002H106.5V16.2002H111.9V17.2002H105.4V8.2002Z" fill="#666666"/>
<path d="M121.6 9.30006C121.13 9.08395 120.617 8.98119 120.1 9.00006C119.538 8.96325 118.979 9.10311 118.5 9.40006C118.273 9.50278 118.084 9.67346 117.959 9.88846C117.833 10.1035 117.778 10.3521 117.8 10.6001C117.784 10.7087 117.794 10.8197 117.828 10.9239C117.863 11.0282 117.922 11.1228 118 11.2001L118.5 11.6001L119.3 11.9001H120.2L121.3 12.1001L122.3 12.4001L123.1 12.9001C123.321 13.0896 123.492 13.3297 123.6 13.6001C123.723 13.9195 123.791 14.2578 123.8 14.6001C123.806 15.0512 123.703 15.4972 123.5 15.9001C123.273 16.2389 122.963 16.5142 122.6 16.7001L121.4 17.2001H120.1C119.308 17.1896 118.525 17.0195 117.8 16.7001C117.11 16.3836 116.571 15.8092 116.3 15.1001L117.2 14.6001C117.484 15.1133 117.947 15.5046 118.5 15.7001C118.981 16.0017 119.533 16.1739 120.1 16.2001H121L121.8 15.9001C122.07 15.7924 122.311 15.6209 122.5 15.4001C122.624 15.1513 122.693 14.8782 122.7 14.6001C122.696 14.3532 122.627 14.1117 122.5 13.9001C122.439 13.7807 122.354 13.675 122.251 13.5891C122.148 13.5032 122.028 13.4389 121.9 13.4001L121.1 13.1001L120.1 12.9001L119.1 12.7001L118.1 12.5001L117.4 12.0001C117.183 11.8477 117.011 11.6407 116.9 11.4001C116.726 11.0975 116.656 10.7463 116.7 10.4001C116.706 9.98223 116.809 9.57146 117 9.20006C117.19 8.89151 117.469 8.64753 117.8 8.50006L118.9 8.00006H120.1C120.779 7.97785 121.457 8.07951 122.1 8.30006C122.7 8.56282 123.194 9.02103 123.5 9.60006L122.7 10.2001C122.456 9.7755 122.065 9.45526 121.6 9.30006Z" fill="#666666"/>
<path d="M133.6 9.29989C133.124 9.10432 132.615 9.00246 132.1 8.99989C131.507 8.96755 130.917 9.10639 130.4 9.39989C130.173 9.50261 129.984 9.67329 129.859 9.88829C129.733 10.1033 129.678 10.352 129.7 10.5999C129.72 10.8125 129.788 11.0178 129.9 11.1999L130.4 11.5999L131.2 11.8999H132.1L133.2 12.0999L134.2 12.3999L135 12.8999C135.221 13.0894 135.392 13.3296 135.5 13.5999C135.674 13.9025 135.744 14.2537 135.7 14.5999C135.706 15.0511 135.603 15.4971 135.4 15.8999C135.173 16.2387 134.863 16.514 134.5 16.6999L133.4 17.1999H132.1C131.274 17.2002 130.457 17.03 129.7 16.6999C129.057 16.321 128.537 15.7657 128.2 15.0999L129.2 14.5999C129.306 14.8607 129.469 15.0947 129.676 15.2849C129.884 15.4752 130.131 15.6169 130.4 15.6999C130.912 16.0139 131.499 16.1864 132.1 16.1999H132.9L133.8 15.8999L134.4 15.3999C134.524 15.1511 134.593 14.878 134.6 14.5999C134.624 14.4757 134.619 14.3475 134.584 14.2258C134.549 14.1041 134.486 13.9924 134.4 13.8999C134.339 13.7806 134.254 13.6748 134.151 13.5889C134.048 13.503 133.928 13.4387 133.8 13.3999L133 13.0999L132 12.9999L131 12.7999L130.1 12.5999L129.3 12.0999C129.083 11.9475 128.911 11.7405 128.8 11.4999C128.677 11.1804 128.609 10.8422 128.6 10.4999C128.606 10.0821 128.708 9.67128 128.9 9.29989C129.09 8.99134 129.369 8.74736 129.7 8.59989L130.8 8.09989H132C132.712 8.086 133.421 8.18731 134.1 8.39989C134.658 8.72276 135.137 9.16706 135.5 9.69989L134.6 10.2999C134.369 9.90283 134.019 9.58811 133.6 9.39989" fill="#666666"/>
</g>
<defs>
<clipPath id="clip0_2753_28013">
<rect width="131.8" height="28.9" fill="white" transform="translate(8 8)"/>
</clipPath>
</defs>
</svg>
