<?xml version="1.0" encoding="utf-8"?>
<!-- Generator: Adobe Illustrator 25.4.1, SVG Export Plug-In . SVG Version: 6.00 Build 0)  -->
<svg version="1.1" id="Layer_1" xmlns="http://www.w3.org/2000/svg" xmlns:xlink="http://www.w3.org/1999/xlink" x="0px" y="0px"
	 viewBox="0 0 2000 1000" style="enable-background:new 0 0 2000 1000;" xml:space="preserve">
<style type="text/css">
	.st0{fill:#024DA1;}
	.st1{fill:#FFDD00;}
	.st2{fill:#FFFFFF;}
</style>
<g>
	<g>
		<path class="st0" d="M1827.89,832.83H172.11c-76.48,0-138.47-62-138.47-138.47V305.64c0-76.48,62-138.47,138.47-138.47h1655.78
			c76.48,0,138.47,62,138.47,138.47v388.72C1966.36,770.84,1904.36,832.83,1827.89,832.83z"/>
		<path class="st1" d="M1790.32,780.67H209.68c-68.23,0-123.75-55.51-123.75-123.74V343.08c0-68.23,55.51-123.74,123.75-123.74
			h1580.64c68.23,0,123.75,55.51,123.75,123.74v313.84C1914.07,725.16,1858.56,780.67,1790.32,780.67z M209.68,233.2
			c-60.58,0-109.87,49.29-109.87,109.87v313.84c0,60.58,49.29,109.87,109.87,109.87h1580.64c60.58,0,109.87-49.29,109.87-109.87
			V343.08c0-60.58-49.29-109.87-109.87-109.87H209.68z"/>
	</g>
	<g>
		<g>
			<g>
				<path class="st2" d="M236.32,532.1c-57.38,0-83.63-42.22-83.63-98.91c0-55.97,26.25-98.92,83.63-98.92
					c14.87,0,29.5,4.58,39.49,13.75v34.74c-11.15-9.65-21.37-14.72-39.49-14.72c-34.85,0-47.16,29.68-47.16,65.14
					c0,35.94,12.31,65.14,47.16,65.14c18.35,0,31.59-5.79,39.49-14.23v34.74C267.91,527.52,253.05,532.1,236.32,532.1z"/>
				<path class="st2" d="M348.97,336.68v193H312.5v-193H348.97z"/>
				<path class="st2" d="M512.5,370.46h-49.71v159.23h-36.7V370.46h-49.72v-33.78H512.5V370.46z"/>
				<path class="st2" d="M581.47,529.69v-69.72l-57.84-123.28h40.65l35.31,77.2l35.54-77.2h40.65l-57.85,123.28v69.72H581.47z"/>
			</g>
			<g>
				<path class="st2" d="M876.33,335.83v33.78h-84.79v43.42h70.85v33.78h-70.85v48.25h85.96v33.78H755.07v-193H876.33z"/>
				<path class="st2" d="M1047.75,335.83l-51.11,88.54l60.4,104.46h-40.65l-39.96-69.48l-40.19,69.48h-40.65l60.4-104.46
					l-51.11-88.54h40.65l30.9,53.32l30.67-53.32H1047.75z"/>
				<path class="st2" d="M1153.89,335.83c35.31,0,58.78,24.61,58.78,61.76c0,36.91-23.46,61.28-58.78,61.28h-35.31v69.96h-36.47
					v-193H1153.89z M1153.89,425.09c13.24,0,22.07-10.86,22.07-27.26c0-17.13-8.83-28.22-22.07-28.22h-35.31v55.49H1153.89z"/>
				<path class="st2" d="M1323.69,335.83c31.36,0,49.72,22.44,49.72,54.28c0,27.99-12.78,48.73-35.31,54.77l44.84,83.96h-36.47
					l-43.67-82.03h-26.25v82.03h-36.47v-193H1323.69z M1323.69,413.03c9.99,0,13.24-9.17,13.24-22.68c0-12.3-3.25-20.75-13.24-20.75
					h-47.16v43.42H1323.69z"/>
				<path class="st2" d="M1533.9,335.83v33.78h-84.79v43.42h70.85v33.78h-70.85v48.25h85.96v33.78h-122.43v-193H1533.9z"/>
				<path class="st2" d="M1568.5,514.6v-37.88c14.63,12.06,29.5,21.95,53.66,21.95c23.23,0,33.45-6.27,33.45-19.3
					c0-29.43-95.48-33.53-95.48-96.02c0-34.26,32.99-52.35,64.12-52.35c17.42,0,35.54,2.89,48.32,9.89v33.77
					c-16.26-8.2-30.43-9.89-48.32-9.89c-12.31,0-26.95,5.07-26.95,18.58c0,34.98,95.25,39.08,95.25,96.02
					c0,34.02-29.74,53.08-70.39,53.08C1597.77,532.45,1583.13,526.18,1568.5,514.6z"/>
				<path class="st2" d="M1723.65,514.6v-37.88c14.63,12.06,29.5,21.95,53.66,21.95c23.23,0,33.45-6.27,33.45-19.3
					c0-29.43-95.48-33.53-95.48-96.02c0-34.26,32.99-52.35,64.12-52.35c17.42,0,35.54,2.89,48.32,9.89v33.77
					c-16.26-8.2-30.43-9.89-48.32-9.89c-12.31,0-26.95,5.07-26.95,18.58c0,34.98,95.25,39.08,95.25,96.02
					c0,34.02-29.74,53.08-70.39,53.08C1752.93,532.45,1738.29,526.18,1723.65,514.6z"/>
			</g>
		</g>
		<g>
			<g>
				<path class="st2" d="M523.4,581.19h37.97c9.35,0,16.71,2.57,21.38,7.25c3.75,3.74,5.61,8.29,5.61,13.9v0.24
					c0,9.23-4.91,14.37-10.75,17.64c9.46,3.62,15.3,9.11,15.3,20.09v0.24c0,14.96-12.15,22.43-30.62,22.43h-38.9V581.19z
					 M557.52,614.26c7.94,0,12.97-2.57,12.97-8.65v-0.24c0-5.37-4.21-8.41-11.8-8.41h-17.76v17.29H557.52z M562.31,647.21
					c7.95,0,12.74-2.8,12.74-8.88v-0.24c0-5.49-4.1-8.88-13.33-8.88h-20.79v17.99H562.31z"/>
				<path class="st2" d="M644.96,630.73l-31.43-49.54h21.03l19.51,32.83l19.86-32.83h20.45l-31.43,49.19v32.6h-18V630.73z"/>
				<path class="st2" d="M776.06,581.19h19.4l21.49,34.59l21.5-34.59h19.39v81.79h-17.87v-53.39l-23.02,34.93h-0.46l-22.79-34.59
					v53.04h-17.64V581.19z"/>
				<path class="st2" d="M923.2,580.61h16.58l35.05,82.37h-18.81l-7.48-18.35h-34.58l-7.48,18.35h-18.35L923.2,580.61z
					 M942.12,628.75l-10.86-26.52l-10.87,26.52H942.12z"/>
				<path class="st2" d="M1005.14,581.19h37.39c10.4,0,18.46,2.92,23.84,8.3c4.56,4.56,7.01,10.98,7.01,18.69v0.24
					c0,13.2-7.12,21.5-17.53,25.35l19.98,29.21h-21.03l-17.53-26.17h-14.14v26.17h-18V581.19z M1041.36,620.92
					c8.77,0,13.79-4.67,13.79-11.56v-0.24c0-7.71-5.38-11.68-14.14-11.68h-17.87v23.48H1041.36z"/>
				<path class="st2" d="M1107.3,581.19h37.39c10.4,0,18.46,2.92,23.84,8.3c4.56,4.56,7.01,10.98,7.01,18.69v0.24
					c0,13.2-7.12,21.5-17.53,25.35l19.98,29.21h-21.03l-17.53-26.17h-14.14v26.17h-18V581.19z M1143.52,620.92
					c8.77,0,13.79-4.67,13.79-11.56v-0.24c0-7.71-5.38-11.68-14.14-11.68h-17.87v23.48H1143.52z"/>
				<path class="st2" d="M1210.29,581.19h18v81.79h-18V581.19z"/>
				<path class="st2" d="M1262.83,622.32v-0.23c0-23.25,18.34-42.3,43.57-42.3s43.35,18.81,43.35,42.06v0.24
					c0,23.25-18.35,42.29-43.58,42.29S1262.83,645.57,1262.83,622.32z M1330.93,622.32v-0.23c0-14.02-10.27-25.71-24.77-25.71
					c-14.48,0-24.53,11.45-24.53,25.47v0.24c0,14.02,10.28,25.7,24.77,25.7C1320.88,647.79,1330.93,636.34,1330.93,622.32z"/>
				<path class="st2" d="M1398.98,597.79h-24.88v-16.59h67.76v16.59h-24.88v65.19h-18V597.79z"/>
				<path class="st2" d="M1492.38,597.79h-24.88v-16.59h67.76v16.59h-24.88v65.19h-18V597.79z"/>
			</g>
		</g>
	</g>
</g>
</svg>
