<?xml version="1.0" encoding="UTF-8"?>
<svg id="Layer_1" data-name="Layer 1" xmlns="http://www.w3.org/2000/svg" viewBox="0 0 3456 1474.52">
  <defs>
    <style>
      .cls-1 {
        fill: #811431;
      }

      .cls-2 {
        fill: #fff;
      }
    </style>
  </defs>
  <g>
    <rect class="cls-1" x="192.23" y="208.31" width="3071.55" height="1057.9" rx="220.07" ry="220.07"/>
    <path class="cls-2" d="M2984.01,1183.3H472c-108.44,0-196.66-88.22-196.66-196.66v-498.77c0-108.44,88.22-196.66,196.66-196.66h2512.01c108.44,0,196.66,88.22,196.66,196.66v498.77c0,108.44-88.22,196.66-196.66,196.66ZM472,313.26c-96.28,0-174.62,78.33-174.62,174.62v498.77c0,96.28,78.33,174.62,174.62,174.62h2512.01c96.28,0,174.62-78.33,174.62-174.62v-498.77c0-96.28-78.33-174.62-174.62-174.62H472Z"/>
  </g>
  <g>
    <g>
      <path class="cls-2" d="M612.83,712.08c-84.67,0-123.41-61.99-123.41-145.24s38.74-145.24,123.41-145.24c21.94,0,43.53,6.73,58.27,20.19v51.01c-16.45-14.17-31.54-21.61-58.27-21.61-51.42,0-69.59,43.57-69.59,95.65s18.17,95.64,69.59,95.64c27.08,0,46.62-8.5,58.27-20.9v51.01c-11.66,12.75-33.59,19.48-58.27,19.48Z"/>
      <path class="cls-2" d="M779.05,425.15v283.39h-53.82v-283.39h53.82Z"/>
      <path class="cls-2" d="M1020.36,474.74h-73.36v233.79h-54.16v-233.79h-73.36v-49.59h200.88v49.59Z"/>
      <path class="cls-2" d="M1122.14,708.53v-102.37l-85.35-181.02h59.99l52.1,113.36,52.45-113.36h59.99l-85.36,181.02v102.37h-53.82Z"/>
    </g>
    <g>
      <path class="cls-2" d="M1556.2,423.3v49.61h-125v63.78h104.45v49.61h-104.45v70.86h126.71v49.61h-180.48v-283.46h178.76Z"/>
      <path class="cls-2" d="M1808.91,423.3l-75.34,130.04,89.04,153.42h-59.93l-58.9-102.05-59.25,102.05h-59.93l89.04-153.42-75.34-130.04h59.93l45.55,78.31,45.21-78.31h59.93Z"/>
      <path class="cls-2" d="M1965.38,423.3c52.06,0,86.64,36.14,86.64,90.71s-34.59,90-86.64,90h-52.05v102.75h-53.76v-283.46h105.82ZM1965.38,554.4c19.52,0,32.54-15.94,32.54-40.04s-13.01-41.45-32.54-41.45h-52.05v81.49h52.05Z"/>
      <path class="cls-2" d="M2215.68,423.3c46.23,0,73.29,32.95,73.29,79.72,0,41.1-18.84,71.57-52.06,80.43l66.1,123.3h-53.77l-64.38-120.47h-38.7v120.47h-53.76v-283.46h123.28ZM2215.68,536.69c14.73,0,19.52-13.47,19.52-33.31,0-18.07-4.8-30.47-19.52-30.47h-69.52v63.78h69.52Z"/>
      <path class="cls-2" d="M2525.57,423.3v49.61h-125v63.78h104.45v49.61h-104.45v70.86h126.71v49.61h-180.48v-283.46h178.76Z"/>
      <path class="cls-2" d="M2576.57,685.86v-55.63c21.57,17.71,43.49,32.24,79.11,32.24s49.31-9.21,49.31-28.34c0-43.23-140.75-49.25-140.75-141.02,0-50.31,48.63-76.89,94.52-76.89,25.68,0,52.4,4.25,71.23,14.53v49.6c-23.97-12.04-44.86-14.53-71.23-14.53-18.15,0-39.72,7.44-39.72,27.28,0,51.38,140.41,57.4,140.41,141.02,0,49.96-43.84,77.95-103.77,77.95-35.96,0-57.53-9.21-79.11-26.22Z"/>
      <path class="cls-2" d="M2805.29,685.86v-55.63c21.57,17.71,43.49,32.24,79.11,32.24s49.31-9.21,49.31-28.34c0-43.23-140.75-49.25-140.75-141.02,0-50.31,48.63-76.89,94.52-76.89,25.68,0,52.4,4.25,71.23,14.53v49.6c-23.97-12.04-44.86-14.53-71.23-14.53-18.15,0-39.72,7.44-39.72,27.28,0,51.38,140.41,57.4,140.41,141.02,0,49.96-43.84,77.95-103.77,77.95-35.96,0-57.53-9.21-79.11-26.22Z"/>
    </g>
  </g>
  <g>
    <path class="cls-2" d="M1631.82,886.65h50.9c12.54,0,22.39,3.45,28.66,9.71,5.03,5.01,7.52,11.11,7.52,18.63v.32c0,12.37-6.58,19.26-14.4,23.65,12.69,4.85,20.51,12.21,20.51,26.93v.32c0,20.05-16.28,30.07-41.04,30.07h-52.15v-109.63ZM1677.56,930.97c10.64,0,17.38-3.45,17.38-11.59v-.32c0-7.2-5.64-11.27-15.82-11.27h-23.81v23.18h22.24ZM1683.97,975.14c10.65,0,17.08-3.76,17.08-11.9v-.32c0-7.36-5.49-11.9-17.86-11.9h-27.87v24.12h28.66Z"/>
    <path class="cls-2" d="M1794.76,953.06l-42.12-66.41h28.19l26.16,44.01,26.62-44.01h27.41l-42.12,65.93v43.7h-24.12v-43.22Z"/>
    <path class="cls-2" d="M1970.49,886.65h26.01l28.81,46.36,28.82-46.36h25.99v109.63h-23.96v-71.57l-30.85,46.83h-.62l-30.55-46.36v71.1h-23.64v-109.63Z"/>
    <path class="cls-2" d="M2167.73,885.87h22.23l46.98,110.41h-25.21l-10.02-24.59h-46.35l-10.02,24.59h-24.59l46.98-110.41ZM2193.09,950.4l-14.55-35.55-14.57,35.55h29.12Z"/>
    <path class="cls-2" d="M2277.56,886.65h50.12c13.94,0,24.74,3.92,31.95,11.12,6.11,6.11,9.39,14.72,9.39,25.06v.32c0,17.69-9.54,28.81-23.49,33.98l26.79,39.15h-28.19l-23.49-35.08h-18.95v35.08h-24.12v-109.63ZM2326.11,939.9c11.75,0,18.48-6.26,18.48-15.5v-.32c0-10.33-7.21-15.66-18.95-15.66h-23.96v31.48h24.43Z"/>
    <path class="cls-2" d="M2414.5,886.65h50.12c13.94,0,24.74,3.92,31.95,11.12,6.11,6.11,9.39,14.72,9.39,25.06v.32c0,17.69-9.54,28.81-23.49,33.98l26.79,39.15h-28.19l-23.49-35.08h-18.95v35.08h-24.12v-109.63ZM2463.05,939.9c11.75,0,18.48-6.26,18.48-15.5v-.32c0-10.33-7.21-15.66-18.95-15.66h-23.96v31.48h24.43Z"/>
    <path class="cls-2" d="M2552.55,886.65h24.12v109.63h-24.12v-109.63Z"/>
    <path class="cls-2" d="M2622.97,941.78v-.31c0-31.17,24.58-56.7,58.41-56.7s58.11,25.22,58.11,56.38v.32c0,31.16-24.59,56.69-58.42,56.69s-58.09-25.22-58.09-56.38ZM2714.26,941.78v-.31c0-18.8-13.77-34.46-33.2-34.46s-32.88,15.35-32.88,34.14v.32c0,18.79,13.79,34.45,33.2,34.45s32.88-15.34,32.88-34.14Z"/>
    <path class="cls-2" d="M2805.47,908.9h-33.35v-22.24h90.83v22.24h-33.35v87.39h-24.12v-87.39Z"/>
    <path class="cls-2" d="M2930.68,908.9h-33.35v-22.24h90.83v22.24h-33.35v87.39h-24.12v-87.39Z"/>
  </g>
  <g>
    <path class="cls-2" d="M489.34,1022.67l19.34-29.37c20.42,15.4,42.62,23.28,61.96,23.28s29.37-7.88,29.37-20.41v-.72c0-14.69-20.06-19.7-42.26-26.5-27.94-7.88-59.1-19.34-59.1-55.51v-.72c0-35.82,29.73-57.66,67.33-57.66,23.64,0,49.42,8.24,69.48,21.49l-17.19,30.8c-18.27-11.1-37.6-17.91-53.36-17.91-16.83,0-26.5,7.88-26.5,18.98v.71c0,13.61,20.42,19.34,42.62,26.5,27.58,8.59,58.74,21.13,58.74,55.16v.72c0,39.76-30.8,59.45-70.2,59.45-26.86,0-56.59-9.67-80.23-28.3Z"/>
    <path class="cls-2" d="M688.12,978.61v-120.34h43.34v107.45c0,29.37,14.68,46.2,40.47,46.2s42.62-17.55,42.62-46.92v-106.73h43.34v189.11h-43.34v-29.37c-12.18,17.91-29.73,33.31-59.1,33.31-42.62,0-67.33-28.65-67.33-72.71Z"/>
    <path class="cls-2" d="M919.49,788.07h46.56v41.19h-46.56v-41.19ZM921.28,858.27h43.34v189.11h-43.34v-189.11Z"/>
    <path class="cls-2" d="M1036.61,995.09v-99.57h-24v-37.25h24v-51.93h43.34v51.93h50.86v37.25h-50.86v92.76c0,16.83,8.59,23.64,23.28,23.64,9.67,0,18.27-2.15,26.86-6.45v35.46c-10.75,6.09-22.92,9.67-39.04,9.67-31.88,0-54.44-13.97-54.44-55.51Z"/>
    <path class="cls-2" d="M1165.18,953.54v-.72c0-54.08,38.32-98.49,92.41-98.49,60.17,0,90.61,47.28,90.61,101.72,0,3.94-.36,7.88-.72,12.18h-138.97c4.66,30.8,26.5,47.99,54.44,47.99,21.13,0,36.17-7.88,51.22-22.56l25.43,22.56c-17.91,21.49-42.62,35.46-77.36,35.46-54.8,0-97.06-39.76-97.06-98.13ZM1305.22,939.57c-2.86-27.94-19.34-49.78-47.99-49.78-26.5,0-45.13,20.41-49.07,49.78h97.06Z"/>
    <path class="cls-2" d="M1382.94,1022.67l19.34-29.37c20.42,15.4,42.62,23.28,61.96,23.28s29.37-7.88,29.37-20.41v-.72c0-14.69-20.06-19.7-42.26-26.5-27.94-7.88-59.1-19.34-59.1-55.51v-.72c0-35.82,29.73-57.66,67.33-57.66,23.64,0,49.42,8.24,69.48,21.49l-17.19,30.8c-18.27-11.1-37.6-17.91-53.36-17.91-16.83,0-26.5,7.88-26.5,18.98v.71c0,13.61,20.42,19.34,42.62,26.5,27.58,8.59,58.74,21.13,58.74,55.16v.72c0,39.76-30.8,59.45-70.2,59.45-26.86,0-56.59-9.67-80.23-28.3Z"/>
  </g>
</svg>