<svg xmlns="http://www.w3.org/2000/svg" viewBox="0 0 131.8 28.9"><defs><style>.a{fill:#741c2e;}.b{fill:#70132f;}.c{fill:#666;}</style></defs><path class="a" d="M74.6,28.4a5.4,5.4,0,0,1-2.5-1.3L73,25a6.6,6.6,0,0,0,2.2,1.2,7.8,7.8,0,0,0,2.6.4,4.8,4.8,0,0,0,2.4-.5,1.5,1.5,0,0,0,.8-1.4,1.3,1.3,0,0,0-.4-1,2.3,2.3,0,0,0-1.2-.6l-1.8-.6-2.7-.7a4.6,4.6,0,0,1-1.8-1.3,3.2,3.2,0,0,1-.8-2.3A4.4,4.4,0,0,1,73,16a4.6,4.6,0,0,1,2-1.5,7.3,7.3,0,0,1,3.2-.6,10.9,10.9,0,0,1,2.6.3,7.9,7.9,0,0,1,2.3.9l-.9,2.1-2-.8-2-.3a3.8,3.8,0,0,0-2.4.6,1.6,1.6,0,0,0-.8,1.4,1.2,1.2,0,0,0,.5,1,2.4,2.4,0,0,0,1.1.6l1.9.6,2.7.7A4.6,4.6,0,0,1,83,22.3a3.6,3.6,0,0,1,.7,2.2,4.3,4.3,0,0,1-.6,2.2,4.6,4.6,0,0,1-2,1.6,8.1,8.1,0,0,1-3.3.6,11.3,11.3,0,0,1-3.2-.5"/><path class="a" d="M94.7,18.4V28.6H92.4V27.3A3.1,3.1,0,0,1,91,28.4a5.8,5.8,0,0,1-1.8.4,4.5,4.5,0,0,1-3.3-1.2,4.2,4.2,0,0,1-1.2-3.3V18.4h2.4v5.5a2.7,2.7,0,0,0,.7,2.1,2.4,2.4,0,0,0,1.7.7,2.9,2.9,0,0,0,2.1-.8,3.3,3.3,0,0,0,.7-2.3V18.4Z"/><rect class="a" x="96.3" y="18.4" width="2.4" height="10.21" transform="translate(-0.1 0.4) rotate(-0.3)"/><path class="a" d="M117.9,24.2h-8A2.5,2.5,0,0,0,111,26a3.8,3.8,0,0,0,2.2.6,3.7,3.7,0,0,0,2.8-1.1l1.3,1.5a4.4,4.4,0,0,1-1.8,1.2,6,6,0,0,1-2.4.5,5.4,5.4,0,0,1-2.9-.7,4.4,4.4,0,0,1-2-1.8,5,5,0,0,1-.7-2.7,5,5,0,0,1,.7-2.7,4.1,4.1,0,0,1,1.8-1.9,5.6,5.6,0,0,1,5.4,0,4.7,4.7,0,0,1,1.9,1.8,6.1,6.1,0,0,1,.6,2.8v.7m-7.1-3.4a3.1,3.1,0,0,0-.9,1.8h5.7a3.1,3.1,0,0,0-.9-1.8,3.2,3.2,0,0,0-1.9-.7,3.2,3.2,0,0,0-2,.7"/><rect class="b" x="96.2" y="15" width="2.4" height="2.36" transform="translate(-0.1 0.4) rotate(-0.3)"/><path class="b" d="M103.5,20.4h3.7a6.2,6.2,0,0,1,1.6-2h-5.3Z"/><path class="a" d="M102.5,20.4v4.8a2.1,2.1,0,0,0,.3,1.2,1.8,1.8,0,0,0,1.1.3,1.8,1.8,0,0,0,1.3-.4L106,28a3.1,3.1,0,0,1-1,.5l-1.3.2a3.6,3.6,0,0,1-2.6-.9,3.2,3.2,0,0,1-.9-2.5V16.1h2.4v4.3Z"/><path class="a" d="M120.7,28.3a7.6,7.6,0,0,1-2-.8l.9-1.8a6,6,0,0,0,1.6.8,6.8,6.8,0,0,0,2,.2,2.8,2.8,0,0,0,1.5-.3c.4-.2.5-.4.5-.7a.6.6,0,0,0-.3-.6l-.7-.4-1.3-.3-2-.6a3.4,3.4,0,0,1-1.4-.9,2.1,2.1,0,0,1-.6-1.6,3,3,0,0,1,.5-1.6,5,5,0,0,1,1.6-1.1,6.2,6.2,0,0,1,2.5-.4,6.8,6.8,0,0,1,2,.2,5.6,5.6,0,0,1,1.7.6l-.7,1.8a6.7,6.7,0,0,0-3-.8,3.4,3.4,0,0,0-1.6.4,1,1,0,0,0-.5.8c0,.4.2.6.6.8l1.8.5,2,.5a4.2,4.2,0,0,1,1.4.9,2.5,2.5,0,0,1,.5,1.6,2.5,2.5,0,0,1-.5,1.6,3.7,3.7,0,0,1-1.5,1.1,6.6,6.6,0,0,1-2.5.4,10.1,10.1,0,0,1-2.5-.3"/><path class="a" d="M130.4,26a1,1,0,0,1,.7.2,1,1,0,0,1,.5.4,2.5,2.5,0,0,1,.2.7,1.9,1.9,0,0,1-.2.7c-.1.2-.3.3-.5.5h-1.3a1.2,1.2,0,0,1-.5-.5,1.9,1.9,0,0,1-.2-.7,1.4,1.4,0,0,1,.2-.6.8.8,0,0,1,.5-.5.7.7,0,0,1,.6-.2m0,.2-.5.2a.8.8,0,0,0-.4.4.8.8,0,0,0-.2.5,1.4,1.4,0,0,0,.2.6c.1.1.2.3.4.4H131l.4-.4a1.3,1.3,0,0,0,.1-.6.7.7,0,0,0-.1-.5c-.1-.2-.3-.4-.4-.4l-.6-.2m-.6,1.8V26.6h1.1V27a.4.4,0,0,1-.1.3h-.1l.2.3V28h-.2l-.2-.2c-.1-.2-.1-.3-.2-.3h-.3V28Zm.3-.8h.5c.1-.1.1-.1.1-.2h-.6Z"/><path class="c" d="M4.7,9.4A4.5,4.5,0,0,1,1.2,8,4.5,4.5,0,0,1,0,4.8,5.6,5.6,0,0,1,.5,2.5,4.6,4.6,0,0,1,2.1.7,5.3,5.3,0,0,1,4.7.1,4.4,4.4,0,0,1,8,1.4l-.8.7a3.6,3.6,0,0,0-2.5-1A3.7,3.7,0,0,0,2,2.2a3.7,3.7,0,0,0-.9,2.5,4,4,0,0,0,1,2.6,3.3,3.3,0,0,0,2.6,1,4,4,0,0,0,2.6-1l.8.7A4.8,4.8,0,0,1,4.7,9.4"/><rect class="c" x="13.1" y="0.2" width="1.1" height="9.03"/><polygon class="c" points="19 1.2 19 0.2 26.2 0.2 26.2 1.2 23.2 1.2 23.2 9.2 22 9.2 22 1.2 19 1.2"/><polygon class="c" points="30.1 0.2 30.1 0.2 31.5 0.2 34.2 4.5 37 0.2 38.3 0.2 38.3 0.2 34.8 5.6 34.8 9.2 33.6 9.2 33.6 5.6 30.1 0.2"/><polygon class="c" points="49.3 0.2 55.7 0.2 55.7 1.2 50.4 1.2 50.4 4.1 55.4 4.1 55.4 5.1 50.4 5.1 50.4 8.2 55.9 8.2 55.9 9.2 49.3 9.2 49.3 0.2"/><polygon class="c" points="67.8 0.2 67.8 0.2 64.7 4.6 67.9 9.2 67.9 9.2 66.6 9.2 64 5.4 61.3 9.2 60 9.2 60 9.2 63.2 4.6 60.2 0.2 60.2 0.2 61.5 0.2 64 3.9 66.5 0.2 67.8 0.2"/><path class="c" d="M73.7,9.2H72.6V.2h4.1a4.1,4.1,0,0,1,1.6.3,4.3,4.3,0,0,1,1,.9,6.1,6.1,0,0,1,.5,1.2,2.9,2.9,0,0,1,0,1.3,6.1,6.1,0,0,1-.5,1.2l-1,.9a4.1,4.1,0,0,1-1.6.3h-3ZM77.8,5a1.3,1.3,0,0,0,.7-.8,1.5,1.5,0,0,0,.2-.9,1.6,1.6,0,0,0-.2-1,1.3,1.3,0,0,0-.7-.8,1.8,1.8,0,0,0-1.1-.3h-3V5.3h3A1.8,1.8,0,0,0,77.8,5"/><path class="c" d="M88.1,6H85.9V9.2H84.8V.2h4.1a3.4,3.4,0,0,1,2.3.8A3.2,3.2,0,0,1,92,3.1,2.6,2.6,0,0,1,91.3,5a2.6,2.6,0,0,1-1.9.9l3,3.3H90.9Zm2.2-1.6a1.5,1.5,0,0,0,.6-1.3,1.8,1.8,0,0,0-.6-1.3,1.7,1.7,0,0,0-1.4-.6h-3V5h3a1.7,1.7,0,0,0,1.4-.6"/><polygon class="c" points="97.4 0.2 103.7 0.2 103.7 1.2 98.5 1.2 98.5 4.1 103.5 4.1 103.5 5.1 98.5 5.1 98.5 8.2 103.9 8.2 103.9 9.2 97.4 9.2 97.4 0.2"/><path class="c" d="M113.6,1.3a3.3,3.3,0,0,0-1.5-.3,2.7,2.7,0,0,0-1.6.4,1.2,1.2,0,0,0-.7,1.2.7.7,0,0,0,.2.6l.5.4.8.3h.9l1.1.2,1,.3.8.5a1.8,1.8,0,0,1,.5.7,3,3,0,0,1,.2,1,2.8,2.8,0,0,1-.3,1.3,2.4,2.4,0,0,1-.9.8l-1.2.5h-1.3a5.9,5.9,0,0,1-2.3-.5,2.9,2.9,0,0,1-1.5-1.6l.9-.5a2.4,2.4,0,0,0,1.3,1.1,3.3,3.3,0,0,0,1.6.5h.9l.8-.3a1.8,1.8,0,0,0,.7-.5,1.9,1.9,0,0,0,.2-.8,1.4,1.4,0,0,0-.2-.7,1,1,0,0,0-.6-.5l-.8-.3-1-.2-1-.2-1-.2-.7-.5a1.5,1.5,0,0,1-.5-.6,1.6,1.6,0,0,1-.2-1,2.7,2.7,0,0,1,.3-1.2,1.8,1.8,0,0,1,.8-.7l1.1-.5h1.2a5.6,5.6,0,0,1,2,.3,2.9,2.9,0,0,1,1.4,1.3l-.8.6a2,2,0,0,0-1.1-.9"/><path class="c" d="M125.6,1.3a4,4,0,0,0-1.5-.3,3.1,3.1,0,0,0-1.7.4,1.2,1.2,0,0,0-.7,1.2,1.4,1.4,0,0,0,.2.6l.5.4.8.3h.9l1.1.2,1,.3.8.5a1.8,1.8,0,0,1,.5.7,1.6,1.6,0,0,1,.2,1,2.8,2.8,0,0,1-.3,1.3,2.4,2.4,0,0,1-.9.8l-1.1.5h-1.3a6,6,0,0,1-2.4-.5,3.9,3.9,0,0,1-1.5-1.6l1-.5a1.9,1.9,0,0,0,1.2,1.1,3.4,3.4,0,0,0,1.7.5h.8l.9-.3.6-.5a1.9,1.9,0,0,0,.2-.8.8.8,0,0,0-.2-.7,1,1,0,0,0-.6-.5l-.8-.3L124,5l-1-.2-.9-.2-.8-.5a1.5,1.5,0,0,1-.5-.6,3,3,0,0,1-.2-1,2.7,2.7,0,0,1,.3-1.2,1.8,1.8,0,0,1,.8-.7l1.1-.5H124a6.6,6.6,0,0,1,2.1.3,4.3,4.3,0,0,1,1.4,1.3l-.9.6a2.2,2.2,0,0,0-1-.9"/></svg>