<svg xmlns="http://www.w3.org/2000/svg" viewBox="0 0 110.8 38.8"><defs><style>.a{fill:#2f5c5a;}.b{fill:#fff;}.c{fill:#e9cb0f;}.d{fill:#bcbc3e;}</style></defs><path class="a" d="M110.4,31.9c0-.3.1-.5,0-.7V6.9A6.5,6.5,0,0,0,104,.4H6.8A6.4,6.4,0,0,0,.4,6.8h0V31.9a6.5,6.5,0,0,0,6.4,6.5H104a6.5,6.5,0,0,0,6.4-6.5"/><path class="b" d="M6.5,38.8h0A6.8,6.8,0,0,1,0,31.9H0V6.5A6.9,6.9,0,0,1,6.5,0H104a6.9,6.9,0,0,1,6.8,6.9h0V31.9a6.8,6.8,0,0,1-6.8,6.8ZM.8,7.2V31.8a6.1,6.1,0,0,0,6,6.2H104a6.2,6.2,0,0,0,6.1-6.1V7.2h0V6.9a6,6,0,0,0-6-6.1H6.8a6,6,0,0,0-6,6Z"/><path class="c" d="M50.2,13.3H45.6a14.8,14.8,0,0,0,.2,2.9.9.9,0,0,0,.9.7c.4,0,.6-.1.7-.3s.3-.4.3-.8H50a2.3,2.3,0,0,1-.9,2,4.1,4.1,0,0,1-2.7.7,3.7,3.7,0,0,1-3.1-1.4,6.4,6.4,0,0,1-1.1-4,6.6,6.6,0,0,1,1.1-4,4,4,0,0,1,3.3-1.3,3.3,3.3,0,0,1,2.8,1.1,5.6,5.6,0,0,1,.8,3.2Zm-2.6-1.5a7.1,7.1,0,0,0-.2-1.9.8.8,0,0,0-.8-.5c-.4,0-.7.1-.8.4a7.5,7.5,0,0,0-.2,2Z"/><path class="c" d="M60,18.4H56.8V14.7l-1.4-1.1-.7.5v4.3H51.5V15.3a1.7,1.7,0,0,1,.2-.5c.2-.2.3-.4.6-.5l2-1.6-2.6-2.1V7.9h3.2v2.3l1.3,1.1.5-.4v-3h3.1V9.5a1.1,1.1,0,0,1-.2.7l-.5.6-1.8,1.3L60,14.3Z"/><path class="c" d="M70.1,12.9c0,.5-.1,1-.1,1.5a6.2,6.2,0,0,1-.1,1.3,3,3,0,0,1-1,2,4.2,4.2,0,0,1-2.3.7H65.4a1,1,0,0,1-.7-.2v3H61.5V7.9h2.7v.5l1.2-.5h1.4a3.3,3.3,0,0,1,2.1.6,2.6,2.6,0,0,1,.9,1.8c0,.3.1.7.1,1.2s.1,1,.1,1.5m-3.4,0V11.5c0-.4-.1-.8-.1-1.1a1.6,1.6,0,0,0-.4-.7l-.7-.2h-.8v7.1l.4.2h.5l.7-.2a.9.9,0,0,0,.3-.7,9.5,9.5,0,0,1,.1-1.4V12.9"/><path class="c" d="M77.8,10.2,77,10H74.7v8.3H71.5V7.9h2.7l.2.5a2.3,2.3,0,0,1,1-.5h1.9l.5.2Z"/><path class="c" d="M86.2,13.3H81.6a9.5,9.5,0,0,0,.2,2.9.8.8,0,0,0,.9.7.8.8,0,0,0,.7-.3c.2-.1.3-.4.3-.8h2.2a2.5,2.5,0,0,1-.8,2,4.3,4.3,0,0,1-2.8.7,3.6,3.6,0,0,1-3-1.4,6.4,6.4,0,0,1-1.1-4,6.6,6.6,0,0,1,1.1-4,3.9,3.9,0,0,1,3.3-1.3,3.1,3.1,0,0,1,2.7,1.1,4.9,4.9,0,0,1,.9,3.2Zm-2.6-1.5a7.1,7.1,0,0,0-.2-1.9.8.8,0,0,0-.8-.5c-.4,0-.7.1-.8.4a4.8,4.8,0,0,0-.2,2Z"/><path class="c" d="M94.6,15.7a2.4,2.4,0,0,1-1,2.1,4.7,4.7,0,0,1-2.6.7,4.5,4.5,0,0,1-2.8-.7,2.5,2.5,0,0,1-.9-2.1h2.6c0,.4,0,.7.2.8a1,1,0,0,0,.8.3l.7-.2c.2-.1.2-.3.2-.6s-.1-.5-.5-.8l-1.6-1.3a5.4,5.4,0,0,1-1.9-1.7,5.3,5.3,0,0,1-.4-1.9,2.1,2.1,0,0,1,1-1.8A4.2,4.2,0,0,1,91,7.8a3.8,3.8,0,0,1,2.6.7,2.3,2.3,0,0,1,.9,2H92a1,1,0,0,0-.3-.8.8.8,0,0,0-.7-.3l-.6.2a.6.6,0,0,0-.3.6,1.3,1.3,0,0,0,.3.8,7.4,7.4,0,0,0,1.9,1.5,10.4,10.4,0,0,1,1.8,1.6,3,3,0,0,1,.5,1.6"/><path class="c" d="M102.8,15.7a2.7,2.7,0,0,1-1,2.1,5.4,5.4,0,0,1-2.7.7,4.7,4.7,0,0,1-2.8-.7,2.5,2.5,0,0,1-.9-2.1H98a1.3,1.3,0,0,0,.2.8,1.1,1.1,0,0,0,.8.3l.7-.2a.6.6,0,0,0,.3-.6c0-.3-.2-.5-.5-.8l-1.7-1.3A4.2,4.2,0,0,1,96,12.2a3.8,3.8,0,0,1-.4-1.9,2,2,0,0,1,.9-1.8,4.4,4.4,0,0,1,2.6-.7,4.1,4.1,0,0,1,2.7.7,2.3,2.3,0,0,1,.9,2h-2.6a1.5,1.5,0,0,0-.2-.8.9.9,0,0,0-.7-.3l-.7.2a.8.8,0,0,0-.2.6,1.3,1.3,0,0,0,.3.8,8.3,8.3,0,0,0,1.8,1.5,7.6,7.6,0,0,1,1.8,1.6,2.5,2.5,0,0,1,.6,1.6"/><path class="b" d="M14.7,10.9H11.2A3.1,3.1,0,0,0,11,9.6a.9.9,0,0,0-.7-.3,1,1,0,0,0-1.1.9A10.3,10.3,0,0,0,9,13.1a10.3,10.3,0,0,0,.2,3.1,1,1,0,0,0,1.1.7l.8-.2c.2-.1.3-.5.3-.9h3a2.5,2.5,0,0,1-1.1,2.1,7.4,7.4,0,0,1-3.4.6,5,5,0,0,1-3.8-1.3,5.6,5.6,0,0,1-1.3-4.1,5.4,5.4,0,0,1,1.3-4,5.8,5.8,0,0,1,4.1-1.4,6.3,6.3,0,0,1,3.4.8,2.6,2.6,0,0,1,1.1,2.4"/><rect class="b" x="15.8" y="7.9" width="4" height="10.57"/><path class="b" d="M29,9.2H26.5v6.6a1.1,1.1,0,0,0,.4,1,3.9,3.9,0,0,0,1.8.2v1.5H26.4a4.6,4.6,0,0,1-2.9-.7,2,2,0,0,1-1-1.9V9.2H20.9V7.9h1.6V4.7h4V7.9H29Z"/><path class="b" d="M40.6,18.1a2.5,2.5,0,0,1-1.5,2.4,8.5,8.5,0,0,1-4.4.9l-2.1-.2-2-.4.4-1.2,1.7.3h1.6a3.4,3.4,0,0,0,1.9-.4,1.7,1.7,0,0,0,.6-1.4v-.5l-.4.3H33.6L30,15.1V7.9h4v7.4l1.8,1.4.8-.8v-8h4Z"/><rect class="b" x="15.7" y="4.6" width="4.2" height="2.28"/><path class="b" d="M104.7,15.7a1.1,1.1,0,0,1,.7.2l.5.5a1.5,1.5,0,0,1,.1.7,1.3,1.3,0,0,1-.1.6l-.5.6H104c-.2-.2-.4-.3-.5-.6a1.4,1.4,0,0,1-.2-.6,1.4,1.4,0,0,1,.2-.7.8.8,0,0,1,.5-.5.8.8,0,0,1,.7-.2m0,.2-.6.2a.8.8,0,0,0-.4.4,1.4,1.4,0,0,0-.2.6c0,.2.1.3.2.5a1,1,0,0,0,.4.5h1.1a1.2,1.2,0,0,0,.5-.5.9.9,0,0,0,.1-.5,1.3,1.3,0,0,0-.1-.6,1,1,0,0,0-.5-.4l-.5-.2m-.6,1.9V16.3h1v.2a.4.4,0,0,1-.1.3l-.3.2h.1l.2.3.2.3H105v-.2l-.3-.4h-.3v.6Zm.2-.8h.7c0-.1-.1-.1-.1-.2h-.1c0-.1-.1-.1-.2-.1h-.3Z"/><path class="d" d="M64.7,34.1l-.3-.4-1.2.4H61.7a5.7,5.7,0,0,1-2.6-.5,1.9,1.9,0,0,1-.7-1.6V26.3h3.4v5.9a.5.5,0,0,0,.3.5c.2.2.4.2.8.2H64V26.3h3.5v7.8Z"/><path class="d" d="M74.9,34.1V28.2a.5.5,0,0,0-.3-.5,1.1,1.1,0,0,0-.8-.2H72.7v6.5H69.3V26.3h2.8l.2.4,1.3-.4h1.5a5.4,5.4,0,0,1,2.4.5,1.5,1.5,0,0,1,.9,1.4v6Z"/><path class="d" d="M93.4,33.2a5.1,5.1,0,0,1-3.4,1,5.5,5.5,0,0,1-3.4-1,4.1,4.1,0,0,1-1.1-3,3.5,3.5,0,0,1,1.1-3,4.8,4.8,0,0,1,3.4-1,4.9,4.9,0,0,1,3.5,1,3.8,3.8,0,0,1,1.1,3,3.5,3.5,0,0,1-1.2,3m-2.5-5.3a.9.9,0,0,0-.9-.5.8.8,0,0,0-.8.5,9.2,9.2,0,0,0-.2,2.3,9.2,9.2,0,0,0,.2,2.3.9.9,0,0,0,1.6,0,9.9,9.9,0,0,0,.2-2.3,11.1,11.1,0,0,0-.1-2.3"/><path class="d" d="M101.9,27.9h-1.8l-.6.2v6.1H96.1V26.3h2.8l.2.4,1.1-.4h2.6V28h-.9"/><path class="d" d="M84,24.7c0,.6-.9,1-1.9,1s-1.9-.4-1.9-1,.8-.9,1.9-.9,1.9.4,1.9.9"/><path class="d" d="M56.7,24.7c0,.6-.9,1-1.9,1s-1.9-.4-1.9-1,.8-.9,1.9-.9,1.9.4,1.9.9"/><path class="d" d="M82.1,26.6l-1.7-.2v7.7h3.4V26.4l-1.7.2"/><path class="d" d="M56.7,24.7c0,.6-.9,1-1.9,1s-1.9-.4-1.9-1,.8-.9,1.9-.9,1.9.4,1.9.9"/><path class="d" d="M54.8,26.6l-1.7-.2V32a.7.7,0,0,1-.3.6q-.1.3-.9.3h-.2a1.2,1.2,0,0,1-1.1-1c0-.2-.1-1.1-.1-1.1H47.3a6.2,6.2,0,0,0,.3,2.4c.7,1.1,3.4,1,4.2,1.1h.8a6,6,0,0,0,2.9-.6,2,2,0,0,0,1-1.8V26.4l-1.7.2"/></svg>