<svg width="148" height="26" viewBox="0 0 148 26" fill="none" xmlns="http://www.w3.org/2000/svg">
<rect width="147.8" height="25.8" fill="#666666"/>
<g clip-path="url(#clip0_2753_27991)">
<path d="M7.99997 12.9C7.98634 12.2528 8.10376 11.6095 8.34519 11.0088C8.58661 10.4082 8.94704 9.86255 9.40479 9.4048C9.86254 8.94705 10.4082 8.58662 11.0088 8.3452C11.6095 8.10378 12.2528 7.98635 12.9 7.99998C13.5874 7.97629 14.2722 8.09761 14.9097 8.35605C15.5471 8.61449 16.1231 9.00425 16.6 9.49998L15.5 10.7C15.1717 10.3327 14.7716 10.0367 14.3244 9.83034C13.8772 9.62393 13.3924 9.51149 12.9 9.49998C12.4665 9.51291 12.0399 9.61114 11.6445 9.78904C11.249 9.96695 10.8925 10.221 10.5953 10.5368C10.2982 10.8526 10.0661 11.2238 9.91248 11.6293C9.75885 12.0348 9.68663 12.4666 9.69997 12.9C9.68657 13.3285 9.75943 13.7554 9.91424 14.1553C10.069 14.5552 10.3026 14.9198 10.6011 15.2276C10.8996 15.5355 11.2569 15.7802 11.6518 15.9472C12.0467 16.1142 12.4712 16.2002 12.9 16.2C13.4113 16.216 13.9196 16.1164 14.3871 15.9086C14.8546 15.7008 15.2692 15.3902 15.6 15L16.7 16.1C16.2106 16.6474 15.6088 17.0827 14.9357 17.3761C14.2626 17.6695 13.5341 17.8141 12.8 17.8C12.1611 17.8001 11.5287 17.6727 10.9397 17.4253C10.3507 17.1778 9.81706 16.8153 9.37 16.3589C8.92295 15.9026 8.57149 15.3615 8.33624 14.7676C8.10098 14.1736 7.98666 13.5387 7.99997 12.9Z" fill="white"/>
<path d="M23.9 8.2002H22.2V17.6402H23.9V8.2002Z" fill="white"/>
<path d="M32.4 9.7002H29.4V8.2002H37.1V9.7002H34.1V17.6002H32.4V9.7002Z" fill="white"/>
<path d="M45.3 13.9002L41.5 8.2002H43.5L46.2 12.3002L48.8 8.2002H50.8L47 13.8002V17.6002H45.3V13.9002Z" fill="white"/>
<path d="M63.2 12.9C63.1864 12.2528 63.3038 11.6095 63.5453 11.0088C63.7867 10.4082 64.1471 9.86255 64.6049 9.4048C65.0626 8.94705 65.6082 8.58662 66.2089 8.3452C66.8095 8.10378 67.4528 7.98635 68.1 7.99998C68.7875 7.97629 69.4723 8.09761 70.1097 8.35605C70.7472 8.61449 71.3231 9.00425 71.8 9.49998L70.7 10.7C70.3718 10.3327 69.9717 10.0367 69.5245 9.83034C69.0773 9.62393 68.5925 9.51149 68.1 9.49998C67.6666 9.51291 67.24 9.61114 66.8445 9.78904C66.4491 9.96695 66.0926 10.221 65.7954 10.5368C65.4982 10.8526 65.2662 11.2238 65.1126 11.6293C64.9589 12.0348 64.8867 12.4666 64.9 12.9C64.8866 13.3285 64.9595 13.7554 65.1143 14.1553C65.2691 14.5552 65.5027 14.9198 65.8012 15.2276C66.0997 15.5355 66.457 15.7802 66.8519 15.9472C67.2468 16.1142 67.6713 16.2002 68.1 16.2C68.6094 16.2023 69.1134 16.0966 69.5788 15.8897C70.0443 15.6829 70.4605 15.3796 70.8 15L71.9 16.1C71.4107 16.6474 70.8089 17.0827 70.1358 17.3761C69.4627 17.6695 68.7342 17.8141 68 17.8C67.3612 17.8001 66.7287 17.6727 66.1398 17.4253C65.5508 17.1778 65.0171 16.8153 64.5701 16.3589C64.123 15.9026 63.7716 15.3615 63.5363 14.7676C63.3011 14.1736 63.1867 13.5387 63.2 12.9Z" fill="white"/>
<path d="M77.3 8.2002H84.3V9.6002H79V12.1002H83.7V13.6002H79V16.1002H84.4V17.6002H77.3V8.2002Z" fill="white"/>
<path d="M90 8.2002H91.6L96.7 14.7002V8.2002H98.3V17.6002H96.9L91.7 10.9002V17.6002H90V8.2002Z" fill="white"/>
<path d="M106.7 9.7002H103.7V8.2002H111.4V9.7002H108.4V17.6002H106.7V9.7002Z" fill="white"/>
<path d="M116.9 8.20029H121.1C121.587 8.16465 122.077 8.22583 122.54 8.3803C123.003 8.53477 123.432 8.77947 123.8 9.10029C124.059 9.36433 124.263 9.67701 124.4 10.0203C124.537 10.3636 124.605 10.7306 124.6 11.1003C124.639 11.7665 124.439 12.4249 124.036 12.9566C123.632 13.4883 123.052 13.8584 122.4 14.0003L124.9 17.6003H123L120.6 14.3003H118.5V17.6003H116.9V8.20029ZM121 12.8003C122.2 12.8003 122.9 12.2003 122.9 11.3003C122.9 10.3003 122.2 9.80029 121 9.80029H118.5V12.8003H121Z" fill="white"/>
<path d="M129.9 12.9001C129.9 12.2481 130.03 11.6027 130.282 11.0015C130.535 10.4004 130.905 9.85576 131.37 9.39942C131.836 8.94309 132.388 8.58426 132.994 8.34398C133.6 8.1037 134.248 7.98678 134.9 8.00009C135.547 7.98646 136.191 8.10389 136.791 8.34531C137.392 8.58673 137.937 8.94716 138.395 9.40491C138.853 9.86266 139.213 10.4083 139.455 11.0089C139.696 11.6096 139.814 12.2529 139.8 12.9001C139.63 14.0919 139.036 15.1825 138.127 15.9714C137.217 16.7604 136.054 17.1948 134.85 17.1948C133.646 17.1948 132.483 16.7604 131.573 15.9714C130.664 15.1825 130.07 14.0919 129.9 12.9001ZM138.1 12.9001C138.113 12.4667 138.041 12.0349 137.888 11.6294C137.734 11.2239 137.502 10.8527 137.205 10.5369C136.907 10.2212 136.551 9.96706 136.156 9.78916C135.76 9.61125 135.333 9.51302 134.9 9.50009C134.462 9.49923 134.029 9.58814 133.627 9.76131C133.226 9.93449 132.863 10.1883 132.564 10.5069C132.264 10.8256 132.032 11.2024 131.884 11.614C131.735 12.0256 131.673 12.4633 131.7 12.9001C131.7 13.7488 132.037 14.5627 132.637 15.1628C133.237 15.7629 134.051 16.1001 134.9 16.1001C135.749 16.1001 136.563 15.7629 137.163 15.1628C137.763 14.5627 138.1 13.7488 138.1 12.9001Z" fill="white"/>
</g>
<defs>
<clipPath id="clip0_2753_27991">
<rect width="131.8" height="9.8" fill="white" transform="translate(8 8)"/>
</clipPath>
</defs>
</svg>
