<svg xmlns="http://www.w3.org/2000/svg" viewBox="0 0 110.7 38.6"><defs><style>.a{fill:#0f4185;}.b{fill:#fff;}.c{fill:#e9cb0f;}</style></defs><path class="a" d="M110.3,31.8c0-.3.1-.5.1-.7V7.1c0-.1-.1-.2-.1-.3A6.5,6.5,0,0,0,103.9.3H6.8A6.5,6.5,0,0,0,.3,6.7h0V31.8a6.5,6.5,0,0,0,6.5,6.5h97.1a6.4,6.4,0,0,0,6.4-6.5"/><path class="b" d="M6.5,38.6h0A6.8,6.8,0,0,1,0,31.8V6.5A6.9,6.9,0,0,1,6.5,0h97.4a6.8,6.8,0,0,1,6.7,6.8h0V31.1a.3.3,0,0,1,0,.4v.3a6.8,6.8,0,0,1-6.7,6.8ZM.6,7V31.7A6.1,6.1,0,0,0,6.8,38h97.1a6.2,6.2,0,0,0,6.2-6.2V7.1h0V6.8A6.1,6.1,0,0,0,103.9.6H6.8A6.2,6.2,0,0,0,.6,6.7Z"/><path class="b" d="M51.2,34H48V28.1a.5.5,0,0,0-.3-.5H45.8V34H42.6V24h3.2v2.5l1-.2H48a5.4,5.4,0,0,1,2.4.5,1.6,1.6,0,0,1,.8,1.3Z"/><path class="b" d="M61.6,30.1a3.8,3.8,0,0,1-1.1,3,4.9,4.9,0,0,1-3.2.9A4.5,4.5,0,0,1,54,33a3.7,3.7,0,0,1-1-2.9,3.7,3.7,0,0,1,1-2.9,4.5,4.5,0,0,1,3.3-1,4.5,4.5,0,0,1,3.3,1,3.7,3.7,0,0,1,1,2.9m-3.4,0a11.7,11.7,0,0,0-.1-2.3c-.1-.3-.4-.4-.8-.4s-.7.1-.8.5a8.6,8.6,0,0,0-.2,2.3,8.8,8.8,0,0,0,.2,2.2c.1.3.4.4.8.4s.6-.1.7-.4a6.2,6.2,0,0,0,.2-2.3"/><path class="b" d="M69,27.3H67v4.8a.8.8,0,0,0,.4.7h1.4V34H66.9a4.6,4.6,0,0,1-2.3-.5,1.5,1.5,0,0,1-.9-1.4V27.3H62.5v-1h1.2V24H67v2.3h2Z"/><path class="b" d="M78.3,30.2H73.5a4.8,4.8,0,0,0,.3,2.2c.1.3.4.4.9.4h.7c.2-.1.2-.4.2-.6h2.3a1.4,1.4,0,0,1-.8,1.4,5.2,5.2,0,0,1-2.8.5,4.3,4.3,0,0,1-3.1-1,3.7,3.7,0,0,1-1-2.9,3.4,3.4,0,0,1,1.1-2.9,4.5,4.5,0,0,1,3.3-1,4.4,4.4,0,0,1,2.8.8,3,3,0,0,1,.9,2.4Zm-2.7-1.1a3.5,3.5,0,0,0-.2-1.3c-.1-.3-.4-.4-.8-.4a1.2,1.2,0,0,0-.9.3,4.5,4.5,0,0,0-.1,1.4Z"/><path class="b" d="M84.7,34H82.6a4,4,0,0,1-1.8-.4,1.4,1.4,0,0,1-.6-1.2V24h3.2v8.4c0,.2.1.3.3.4h1Z"/><path class="b" d="M93.9,30.2H89.1a4.8,4.8,0,0,0,.3,2.2c.1.3.4.4.9.4H91c.2-.1.2-.4.2-.6h2.3a1.4,1.4,0,0,1-.8,1.4,5.2,5.2,0,0,1-2.8.5,4.3,4.3,0,0,1-3.1-1,3.7,3.7,0,0,1-1-2.9,3.4,3.4,0,0,1,1.1-2.9,4.5,4.5,0,0,1,3.3-1A4.4,4.4,0,0,1,93,27a3,3,0,0,1,.9,2.4Zm-2.7-1.1a3.5,3.5,0,0,0-.2-1.3c-.1-.3-.4-.4-.8-.4s-.7.1-.8.3-.2.7-.2,1.4Z"/><path class="b" d="M102.7,32a1.9,1.9,0,0,1-1,1.5,5.6,5.6,0,0,1-2.8.5,5,5,0,0,1-2.7-.5,1.5,1.5,0,0,1-1-1.5h2.6a.6.6,0,0,0,.3.6l.7.2h.8c.2-.1.2-.3.2-.5s-.1-.4-.5-.6l-1.6-.9a4.6,4.6,0,0,1-1.9-1.3,2.1,2.1,0,0,1-.4-1.4,1.4,1.4,0,0,1,1-1.3,6,6,0,0,1,2.6-.5,6.5,6.5,0,0,1,2.7.5,1.6,1.6,0,0,1,.9,1.5H100a.6.6,0,0,0-.3-.6l-.7-.2h-.6a.5.5,0,0,0-.3.4.9.9,0,0,0,.3.7l1.9,1a9,9,0,0,1,1.8,1.2,1.7,1.7,0,0,1,.6,1.2"/><path class="c" d="M50.1,13.2H45.5a16.2,16.2,0,0,0,.2,3,1.1,1.1,0,0,0,1.6.4,1.2,1.2,0,0,0,.3-.9h2.3a2.6,2.6,0,0,1-.9,2.1,4.9,4.9,0,0,1-2.7.6,3.6,3.6,0,0,1-3.1-1.3,6.7,6.7,0,0,1-1-4.1,6.6,6.6,0,0,1,1-4,4,4,0,0,1,3.3-1.3,3.5,3.5,0,0,1,2.8,1.1,4.9,4.9,0,0,1,.8,3.2Zm-2.6-1.5a7.8,7.8,0,0,0-.2-1.9.9.9,0,0,0-1.6,0,6.6,6.6,0,0,0-.2,1.9Z"/><path class="c" d="M59.9,18.3H56.7V14.6l-1.4-1.1-.7.6v4.2H51.4v-3a1.4,1.4,0,0,1,.2-.6l.6-.5,2-1.6-2.6-2.1V7.8h3.2v2.3l1.3,1.1.5-.4v-3h3.1V9.4a1,1,0,0,1-.2.7l-.5.6L57.2,12l2.7,2.2Z"/><path class="c" d="M70,12.8a7.1,7.1,0,0,1-.1,1.5,7.1,7.1,0,0,1-.1,1.4,2.7,2.7,0,0,1-1,1.9,3.5,3.5,0,0,1-2.3.7H64.6v3H61.4V7.8h2.7v.5l1.2-.5h1.4a3.3,3.3,0,0,1,2.1.6,2.6,2.6,0,0,1,.9,1.8c0,.3.1.7.1,1.2a7.6,7.6,0,0,1,.1,1.5m-3.4,0V11.4c0-.4-.1-.7-.1-1a1.5,1.5,0,0,0-.3-.7,1.1,1.1,0,0,0-.8-.3h-.8v7.1l.4.2h.6c.2,0,.5,0,.6-.2a.9.9,0,0,0,.3-.7c0-.2.1-.6.1-1.3V12.8"/><path class="c" d="M77.7,10.1,77,9.9H75.3l-.6.2v8.2H71.5V7.8h2.6l.2.5,1-.5h1.9l.5.2Z"/><path class="c" d="M86.1,13.2H81.5a10.3,10.3,0,0,0,.2,3,.9.9,0,0,0,.9.6l.7-.2a1.2,1.2,0,0,0,.3-.9h2.2a2.9,2.9,0,0,1-.8,2.1,4.9,4.9,0,0,1-2.7.6,3.6,3.6,0,0,1-3.1-1.3A6.7,6.7,0,0,1,78.1,13a6.6,6.6,0,0,1,1.1-4,3.9,3.9,0,0,1,3.3-1.3,3.2,3.2,0,0,1,2.7,1.1,4.9,4.9,0,0,1,.9,3.2Zm-2.6-1.5a7.8,7.8,0,0,0-.2-1.9.9.9,0,0,0-1.6,0,4.2,4.2,0,0,0-.2,1.9Z"/><path class="c" d="M94.5,15.6a2.6,2.6,0,0,1-.9,2.1,4.5,4.5,0,0,1-2.7.7,4.5,4.5,0,0,1-2.8-.7,2.3,2.3,0,0,1-.9-2h2.6a1.9,1.9,0,0,0,.2.8l.8.2a.8.8,0,0,0,.7-.2c.2-.1.2-.3.2-.6a1,1,0,0,0-.5-.8,9.2,9.2,0,0,0-1.6-1.2,6.6,6.6,0,0,1-1.9-1.8,4.9,4.9,0,0,1-.4-1.9,2.1,2.1,0,0,1,1-1.8,4.4,4.4,0,0,1,2.6-.7,4.3,4.3,0,0,1,2.7.7,2.4,2.4,0,0,1,.9,2H91.9a1.1,1.1,0,0,0-.3-.8.8.8,0,0,0-.7-.3l-.6.2c-.2.1-.2.3-.2.6a1.1,1.1,0,0,0,.3.8,8.3,8.3,0,0,0,1.8,1.5A7.6,7.6,0,0,1,94,14a2.4,2.4,0,0,1,.5,1.6"/><path class="c" d="M102.7,15.6a2.7,2.7,0,0,1-1,2.1,4.5,4.5,0,0,1-2.7.7,4.1,4.1,0,0,1-2.7-.7,2.1,2.1,0,0,1-1-2h2.6a1.1,1.1,0,0,0,.3.8l.7.2c.3,0,.6,0,.7-.2a.6.6,0,0,0,.3-.6,1.5,1.5,0,0,0-.5-.8l-1.7-1.2a5,5,0,0,1-1.8-1.8,3.6,3.6,0,0,1-.4-1.9,1.9,1.9,0,0,1,1-1.8,5.2,5.2,0,0,1,5.2,0,2.4,2.4,0,0,1,.9,2H100a1.9,1.9,0,0,0-.2-.8.9.9,0,0,0-.7-.3l-.7.2a.8.8,0,0,0-.2.6,1.1,1.1,0,0,0,.3.8,8.3,8.3,0,0,0,1.8,1.5,11.9,11.9,0,0,1,1.9,1.6,3,3,0,0,1,.5,1.6"/><path class="b" d="M14.7,10.8H11.1a2.5,2.5,0,0,0-.2-1.2.8.8,0,0,0-.7-.3c-.6,0-1,.2-1.1.8A10.3,10.3,0,0,0,8.9,13a18.1,18.1,0,0,0,.2,3.2,1.1,1.1,0,0,0,1.1.6c.4,0,.6,0,.8-.2s.3-.4.3-.9h3a2.3,2.3,0,0,1-1.1,2.1,7.2,7.2,0,0,1-3.4.7A5.2,5.2,0,0,1,6,17.1,5.6,5.6,0,0,1,4.7,13,5.2,5.2,0,0,1,6.1,9a5.4,5.4,0,0,1,4-1.4,6.3,6.3,0,0,1,3.4.8,2.6,2.6,0,0,1,1.2,2.4"/><rect class="b" x="15.7" y="7.8" width="4" height="10.57"/><path class="b" d="M28.9,9.2H26.4v6.5a1,1,0,0,0,.5,1,3.2,3.2,0,0,0,1.7.3v1.4H26.3a5.5,5.5,0,0,1-2.9-.6,2.2,2.2,0,0,1-1-2V9.2H20.9V7.8h1.5V4.6h4V7.8h2.5Z"/><path class="b" d="M40.5,18A2.7,2.7,0,0,1,39,20.5a9.7,9.7,0,0,1-4.3.8H32.5l-2-.4.4-1.3,1.7.3h1.6a3.3,3.3,0,0,0,1.9-.5,1.5,1.5,0,0,0,.6-1.3v-.4a.3.3,0,0,1-.1-.2l-.4.4H33.5L29.9,15V7.8h4v7.4l1.8,1.4.8-.8v-8h4Z"/><rect class="b" x="15.6" y="4.6" width="4.2" height="2.28"/><path class="b" d="M104.6,15.6l.7.2c.2.1.3.3.5.5a1.4,1.4,0,0,1,.2.7,2.5,2.5,0,0,1-.2.7,1.2,1.2,0,0,1-.5.5l-.7.2-.7-.2a1.2,1.2,0,0,1-.5-.5,2.5,2.5,0,0,1-.2-.7,1.4,1.4,0,0,1,.2-.7,1.2,1.2,0,0,1,.5-.5l.7-.2m0,.2-.6.2-.4.4a1.4,1.4,0,0,0-.2.6,1.4,1.4,0,0,0,.2.6l.4.4h1.2l.4-.4a1.3,1.3,0,0,0,.1-.6,1.3,1.3,0,0,0-.1-.6,1,1,0,0,0-.5-.4l-.5-.2m-.6,1.9V16.3h1.1v.3c0,.1,0,.2-.1.2l-.3.2h.1c.1,0,.2.1.2.3l.2.2h-.3v-.2l-.2-.3h-.4v.6Zm.2-.8h.6c0-.1,0-.1-.1-.1h-.5Z"/></svg>