<?xml version="1.0" encoding="UTF-8"?>
<svg id="Layer_1" xmlns="http://www.w3.org/2000/svg" version="1.1" viewBox="0 0 1500 1500">
  <!-- Generator: Adobe Illustrator 29.4.0, SVG Export Plug-In . SVG Version: 2.1.0 Build 152)  -->
  <defs>
    <style>
      .st0 {
        fill: #010101;
      }

      .st1 {
        fill: #fff;
      }
    </style>
  </defs>
  <rect class="st1" width="1500" height="1500"/>
  <g>
    <g>
      <rect class="st0" x="626.2" y="399.2" width="22.8" height="183.1"/>
      <polygon class="st0" points="745.8 419.6 745.8 399.2 893.4 399.2 893.4 419.6 830.9 419.6 830.9 582.3 808.4 582.3 808.4 419.6 745.8 419.6"/>
      <g>
        <path class="st0" d="M456.9,585.2c-30.5,0-54-9-70.5-27.1-16.5-18.1-24.8-40.2-25-66.3-.2-16.7,3.1-32.2,10-46.3,6.8-14.1,17.6-25.9,32.4-35.2,14.8-9.3,32.5-14,53.1-14s48.3,9.1,67,27.5l-15.7,14.7c-13.8-13.6-30.9-20.4-51.3-20.4s-41.4,7.1-54,21.5c-12.6,14.3-18.9,31.7-18.7,52.1.4,20.2,6.7,37.3,19.1,51.1s30.3,20.8,53.6,20.8,37.9-7.1,52.1-21.2l16,15.7c-18.3,18.1-41,27.2-68,27.2"/>
        <polygon class="st0" points="971.9 399.9 971.9 399.2 999.7 399.2 1054.6 486 1110.9 399.2 1138.6 399.2 1138.6 399.9 1066.4 508 1066.4 582.3 1042.8 582.3 1042.8 508 971.9 399.9"/>
      </g>
    </g>
    <g>
      <polygon class="st0" points="361.4 651.5 424.3 651.5 424.3 661.8 372.4 661.8 372.4 689.8 422.1 689.8 422.1 700.1 372.4 700.1 372.4 730.4 426.3 730.4 426.3 741 361.4 741 361.4 651.5"/>
      <polygon class="st0" points="544.1 651.7 544.1 652 513.8 695.4 545.9 740.8 545.9 741 533.1 741 506.7 703.4 480.2 741 467.4 741 467.4 740.8 499.5 695.4 469.2 652 469.2 651.7 482.1 651.7 506.7 687.8 531.5 651.7 544.1 651.7"/>
      <path class="st0" d="M603.5,741h-11v-89.5h40.7c5.6,0,10.7,1.1,15.1,3.3,4.4,2.2,7.8,5.1,10.1,8.7,2.3,3.6,4,7.5,5,11.8,1.1,4.3,1.1,8.6,0,12.9-1.1,4.3-2.8,8.2-5,11.8-2.3,3.5-5.7,6.4-10.1,8.7-4.4,2.3-9.5,3.4-15.1,3.4h-29.7v28.9h0ZM644.1,698.8c3.1-2,5.3-4.4,6.7-7.4,1.4-3,2-6.2,2-9.6s-.7-6.6-2-9.6c-1.4-3-3.6-5.5-6.7-7.4-3.1-2-6.8-2.9-10.9-2.9h-29.7v39.9h29.7c4.2,0,7.8-1,10.9-2.9"/>
      <path class="st0" d="M746.1,708.8h-21.7v32.2h-11.1v-89.5h40.7c9.5,0,17,2.8,22.3,8.4,5.3,5.6,8,12.4,8,20.2,0,7.3-2,13.6-6.3,18.9s-10.8,8.2-19.4,8.9l29.5,33.1h-14.1l-27.9-32.2ZM768,693.7c3.4-3.5,5-7.9,5-13.2,0-4.9-1.6-9.3-5-13.2-3.4-3.8-8.1-5.8-14.2-5.8h-29.5v37.3h29c6.4,0,11.3-1.7,14.6-5.2"/>
      <polygon class="st0" points="837.5 651.5 900.4 651.5 900.4 661.8 848.5 661.8 848.5 689.8 898.2 689.8 898.2 700.1 848.5 700.1 848.5 730.4 902.5 730.4 902.5 741 837.5 741 837.5 651.5"/>
      <path class="st0" d="M998.9,662.6c-4.6-1.9-9.5-2.9-14.8-3-6.4,0-11.9,1.3-16.6,3.9-4.6,2.6-7,6.4-7,11.4s.6,4.3,1.8,6c1.2,1.7,3,3.1,5.5,4.2s5,2,7.5,2.6c2.5.6,5.7,1.3,9.5,1.8,4.4.7,8,1.3,10.7,1.9s5.9,1.6,9.4,2.9c3.5,1.3,6.3,2.8,8.2,4.5,2,1.7,3.6,4,5,7,1.4,2.9,2.1,6.4,2.1,10.3s-1.1,9-3.3,12.5-5.1,6.3-8.7,8.3c-3.6,2-7.5,3.4-11.6,4.3-4.1.9-8.4,1.4-12.9,1.4-8.5,0-16.2-1.7-22.9-5-6.7-3.4-11.7-8.6-15-15.7l9.2-5.4c2.7,5,6.8,8.9,12.1,11.6,5.3,2.7,10.9,4.1,16.7,4.1s5.9-.3,8.6-.8,5.5-1.4,8-2.6c2.6-1.2,4.7-2.9,6.3-5.2s2.4-5,2.4-8.1-.7-5-2-6.9c-1.3-2-3.3-3.5-5.9-4.7-2.7-1.2-5.3-2.1-8-2.8-2.7-.7-6-1.3-9.9-1.9-4.1-.6-7.5-1.2-10.3-1.8-2.8-.6-5.8-1.6-9-2.8-3.2-1.2-5.8-2.7-7.8-4.3-2-1.7-3.6-3.8-4.9-6.5-1.3-2.7-2-5.8-2-9.3,0-4.4.9-8.3,3-11.7,2.1-3.4,4.8-6,8.3-7.9,3.5-1.9,7.1-3.3,11-4.2,3.9-.9,7.9-1.3,12-1.3,7.7,0,14.3,1.2,20,3.5,5.6,2.3,10.3,6.6,13.9,12.8l-8.4,5.2c-2.3-3.7-5.8-6.6-10.4-8.5"/>
      <path class="st0" d="M1117.1,662.6c-4.6-1.9-9.6-2.9-14.8-3-6.4,0-11.9,1.3-16.6,3.9-4.7,2.6-7,6.4-7,11.4s.6,4.3,1.8,6c1.2,1.7,3,3.1,5.5,4.2s5,2,7.5,2.6,5.7,1.3,9.5,1.8c4.4.7,8,1.3,10.7,1.9s5.9,1.6,9.4,2.9c3.5,1.3,6.3,2.8,8.2,4.5,2,1.7,3.6,4,5.1,7,1.4,2.9,2.1,6.4,2.1,10.3s-1.1,9-3.3,12.5-5.1,6.3-8.7,8.3c-3.6,2-7.5,3.4-11.6,4.3-4.1.9-8.4,1.4-12.9,1.4-8.5,0-16.2-1.7-22.9-5-6.7-3.4-11.7-8.6-14.9-15.7l9.2-5.4c2.7,5,6.8,8.9,12.1,11.6,5.3,2.7,10.9,4.1,16.7,4.1s5.9-.3,8.6-.8,5.5-1.4,8.1-2.6c2.6-1.2,4.7-2.9,6.3-5.2,1.6-2.3,2.4-5,2.4-8.1s-.7-5-2-6.9c-1.3-2-3.3-3.5-5.9-4.7-2.7-1.2-5.3-2.1-8-2.8-2.7-.7-6-1.3-9.9-1.9-4.1-.6-7.5-1.2-10.3-1.8-2.8-.6-5.8-1.6-9-2.8-3.2-1.2-5.8-2.7-7.8-4.3-2-1.7-3.6-3.8-4.9-6.5-1.3-2.7-2-5.8-2-9.3,0-4.4.9-8.3,3-11.7,2.1-3.4,4.8-6,8.3-7.9,3.5-1.9,7.1-3.3,11-4.2,3.9-.9,7.9-1.3,11.9-1.3,7.7,0,14.3,1.2,19.9,3.5s10.3,6.6,13.9,12.8l-8.4,5.2c-2.3-3.7-5.8-6.6-10.4-8.5"/>
    </g>
    <g>
      <path class="st0" d="M435,923.2h-44.2v46h-29.5v-156.2c24.5,0,49.1-.2,73.6-.2,76.3,0,76.6,110.5,0,110.5M390.8,896.2h44.2c37.7,0,37.5-55.3,0-55.3h-44.2v55.3Z"/>
      <polygon class="st0" points="613.2 813 613.2 942 693.5 942 693.5 969.2 583.7 969.2 583.7 813 613.2 813"/>
      <path class="st0" d="M913.6,813.2v89.5c0,46.2-28.3,69.8-67.6,69.8s-69.4-22.8-69.4-69.8v-89.5h29.2v89.5c0,28.1,16.1,43.1,40.4,43.1s38.2-16.3,38.2-43.1v-89.5h29.2Z"/>
      <path class="st0" d="M1110.3,850.7c-5.3-8.9-20.1-17.4-37.1-17.4s-32.3,9.2-32.3,20.8,16.1,17.4,34.8,19.6c32.6,4,62.9,12.5,62.9,49.8s-30.8,49.8-65.6,49.8-56.5-9.8-68.1-38.4l24.6-12.7c6.9,17.2,25,24.8,43.9,24.8s35.9-6.5,35.9-23.4-15.4-20.8-36.2-23c-31.9-3.8-61.4-12.3-61.4-47.3s31.7-45.3,60.5-45.5c24.3,0,49.6,6.9,61.4,31l-23.4,12Z"/>
    </g>
    <g>
      <path class="st0" d="M361.4,1039.8h29.2c7.2,0,12.8,2,16.4,5.6,2.9,2.9,4.3,6.4,4.3,10.7v.2c0,7.1-3.8,11-8.2,13.6,7.3,2.8,11.8,7,11.8,15.4v.2c0,11.5-9.3,17.2-23.5,17.2h-29.9v-62.8h0ZM387.6,1065.2c6.1,0,10-2,10-6.6v-.2c0-4.1-3.2-6.5-9.1-6.5h-13.6v13.3h12.7ZM391.3,1090.5c6.1,0,9.8-2.2,9.8-6.8v-.2c0-4.2-3.1-6.8-10.2-6.8h-16v13.8h16.4Z"/>
      <path class="st0" d="M454.7,1077.9l-24.1-38.1h16.1l15,25.2,15.3-25.2h15.7l-24.1,37.8v25h-13.8v-24.8Z"/>
      <path class="st0" d="M555.4,1039.8h14.9l16.5,26.6,16.5-26.6h14.9v62.8h-13.7v-41l-17.7,26.8h-.3l-17.5-26.6v40.7h-13.5v-62.8h0Z"/>
      <path class="st0" d="M668.5,1039.4h12.7l26.9,63.3h-14.5l-5.7-14.1h-26.6l-5.7,14.1h-14.1l26.9-63.3ZM683,1076.4l-8.3-20.4-8.3,20.4h16.7Z"/>
      <path class="st0" d="M731.4,1039.8h28.7c8,0,14.2,2.2,18.3,6.4,3.5,3.5,5.4,8.4,5.4,14.4v.2c0,10.1-5.5,16.5-13.5,19.5l15.3,22.4h-16.2l-13.5-20.1h-10.9v20.1h-13.8v-62.8ZM759.2,1070.3c6.7,0,10.6-3.6,10.6-8.9v-.2c0-5.9-4.1-9-10.9-9h-13.7v18h14Z"/>
      <path class="st0" d="M809.9,1039.8h28.7c8,0,14.2,2.2,18.3,6.4,3.5,3.5,5.4,8.4,5.4,14.4v.2c0,10.1-5.5,16.5-13.5,19.5l15.3,22.4h-16.2l-13.5-20.1h-10.9v20.1h-13.8v-62.8h0ZM837.7,1070.3c6.7,0,10.6-3.6,10.6-8.9v-.2c0-5.9-4.1-9-10.9-9h-13.7v18h14Z"/>
      <path class="st0" d="M889,1039.8h13.8v62.8h-13.8v-62.8Z"/>
      <path class="st0" d="M929.3,1071.4v-.2c0-17.9,14.1-32.5,33.5-32.5s33.3,14.4,33.3,32.3v.2c0,17.9-14.1,32.5-33.5,32.5s-33.3-14.5-33.3-32.3ZM981.7,1071.4v-.2c0-10.8-7.9-19.7-19-19.7s-18.8,8.8-18.8,19.6v.2c0,10.8,7.9,19.7,19,19.7s18.8-8.8,18.8-19.6Z"/>
      <path class="st0" d="M1033.9,1052.6h-19.1v-12.8h52.1v12.8h-19.1v50.1h-13.8v-50.1h0Z"/>
      <path class="st0" d="M1105.7,1052.6h-19.1v-12.8h52.1v12.8h-19.1v50.1h-13.8v-50.1h0Z"/>
    </g>
  </g>
</svg>