<?xml version="1.0" encoding="UTF-8"?>
<svg id="Layer_1" data-name="Layer 1" xmlns="http://www.w3.org/2000/svg" viewBox="0 0 2000 926">
  <defs>
    <style>
      .cls-1 {
        fill: #fff;
      }

      .cls-2 {
        fill: #bec93a;
      }

      .cls-3 {
        fill: #026666;
      }

      .cls-4 {
        fill: #fd0;
      }
    </style>
  </defs>
  <g>
    <rect class="cls-3" x="100.22" y="153.01" width="1799.55" height="619.8" rx="128.93" ry="128.93"/>
    <path class="cls-4" d="M1735.87,724.23H264.14c-63.53,0-115.22-51.69-115.22-115.22v-292.22c0-63.53,51.69-115.22,115.22-115.22h1471.73c63.53,0,115.22,51.69,115.22,115.22v292.22c0,63.53-51.69,115.22-115.22,115.22ZM264.14,214.49c-56.41,0-102.3,45.89-102.3,102.3v292.22c0,56.41,45.89,102.3,102.3,102.3h1471.73c56.41,0,102.3-45.89,102.3-102.3v-292.22c0-56.41-45.89-102.3-102.3-102.3H264.14Z"/>
  </g>
  <g>
    <g>
      <path class="cls-1" d="M340.47,448.15c-49.61,0-72.3-36.32-72.3-85.09s22.69-85.09,72.3-85.09c12.85,0,25.51,3.94,34.14,11.83v29.89c-9.64-8.3-18.48-12.66-34.14-12.66-30.13,0-40.77,25.53-40.77,56.04s10.64,56.03,40.77,56.03c15.87,0,27.31-4.98,34.14-12.25v29.89c-6.83,7.47-19.68,11.42-34.14,11.42Z"/>
      <path class="cls-1" d="M437.86,280.04v166.03h-31.53v-166.03h31.53Z"/>
      <path class="cls-1" d="M579.23,309.1h-42.98v136.97h-31.73v-136.97h-42.98v-29.06h117.69v29.06Z"/>
      <path class="cls-1" d="M638.86,446.08v-59.98l-50.01-106.05h35.15l30.53,66.41,30.73-66.41h35.15l-50.01,106.05v59.98h-31.53Z"/>
    </g>
    <g>
      <path class="cls-1" d="M893.17,278.96v29.06h-73.23v37.37h61.2v29.06h-61.2v41.52h74.24v29.06h-105.74v-166.07h104.73Z"/>
      <path class="cls-1" d="M1041.23,278.96l-44.14,76.19,52.16,89.89h-35.11l-34.51-59.79-34.71,59.79h-35.11l52.17-89.89-44.14-76.19h35.11l26.69,45.88,26.48-45.88h35.11Z"/>
      <path class="cls-1" d="M1132.9,278.96c30.5,0,50.76,21.17,50.76,53.14s-20.26,52.73-50.76,52.73h-30.5v60.2h-31.5v-166.07h62ZM1132.9,355.77c11.44,0,19.06-9.34,19.06-23.46s-7.62-24.29-19.06-24.29h-30.5v47.74h30.5Z"/>
      <path class="cls-1" d="M1279.54,278.96c27.09,0,42.94,19.31,42.94,46.71,0,24.08-11.04,41.93-30.5,47.12l38.72,72.24h-31.5l-37.72-70.58h-22.67v70.58h-31.5v-166.07h72.23ZM1279.54,345.39c8.63,0,11.44-7.89,11.44-19.51,0-10.59-2.81-17.85-11.44-17.85h-40.73v37.37h40.73Z"/>
      <path class="cls-1" d="M1461.1,278.96v29.06h-73.23v37.37h61.2v29.06h-61.2v41.52h74.24v29.06h-105.74v-166.07h104.73Z"/>
      <path class="cls-1" d="M1490.98,432.79v-32.59c12.64,10.38,25.48,18.89,46.35,18.89s28.89-5.4,28.89-16.61c0-25.33-82.46-28.85-82.46-82.62,0-29.48,28.49-45.05,55.38-45.05,15.05,0,30.7,2.49,41.73,8.51v29.06c-14.05-7.06-26.29-8.51-41.73-8.51-10.63,0-23.27,4.36-23.27,15.98,0,30.1,82.26,33.63,82.26,82.62,0,29.27-25.68,45.67-60.79,45.67-21.07,0-33.71-5.4-46.35-15.36Z"/>
      <path class="cls-1" d="M1624.99,432.79v-32.59c12.64,10.38,25.48,18.89,46.35,18.89s28.89-5.4,28.89-16.61c0-25.33-82.46-28.85-82.46-82.62,0-29.48,28.49-45.05,55.38-45.05,15.05,0,30.7,2.49,41.73,8.51v29.06c-14.05-7.06-26.29-8.51-41.73-8.51-10.63,0-23.27,4.36-23.27,15.98,0,30.1,82.26,33.63,82.26,82.62,0,29.27-25.68,45.67-60.79,45.67-21.07,0-33.71-5.4-46.35-15.36Z"/>
    </g>
  </g>
  <g>
    <path class="cls-1" d="M937.48,550.43h29.82c7.34,0,13.12,2.02,16.79,5.69,2.94,2.94,4.41,6.51,4.41,10.92v.19c0,7.25-3.85,11.29-8.44,13.86,7.43,2.84,12.02,7.16,12.02,15.78v.19c0,11.74-9.54,17.62-24.04,17.62h-30.55v-64.23ZM964.27,576.4c6.23,0,10.18-2.02,10.18-6.79v-.19c0-4.22-3.31-6.6-9.27-6.6h-13.95v13.58h13.03ZM968.03,602.27c6.24,0,10.01-2.2,10.01-6.97v-.19c0-4.31-3.22-6.97-10.47-6.97h-16.33v14.13h16.79Z"/>
    <path class="cls-1" d="M1032.94,589.34l-24.68-38.91h16.51l15.32,25.79,15.6-25.79h16.06l-24.68,38.63v25.6h-14.13v-25.32Z"/>
    <path class="cls-1" d="M1135.9,550.43h15.24l16.88,27.16,16.88-27.16h15.23v64.23h-14.04v-41.93l-18.08,27.43h-.36l-17.9-27.16v41.66h-13.85v-64.23Z"/>
    <path class="cls-1" d="M1251.45,549.97h13.02l27.53,64.69h-14.77l-5.87-14.41h-27.16l-5.87,14.41h-14.41l27.53-64.69ZM1266.31,587.78l-8.53-20.83-8.53,20.83h17.06Z"/>
    <path class="cls-1" d="M1315.8,550.43h29.36c8.16,0,14.5,2.3,18.72,6.52,3.58,3.58,5.5,8.62,5.5,14.68v.19c0,10.37-5.59,16.88-13.76,19.91l15.69,22.94h-16.51l-13.76-20.55h-11.1v20.55h-14.13v-64.23ZM1344.24,581.63c6.89,0,10.83-3.67,10.83-9.08v-.19c0-6.05-4.22-9.17-11.1-9.17h-14.04v18.44h14.31Z"/>
    <path class="cls-1" d="M1396.03,550.43h29.36c8.16,0,14.5,2.3,18.72,6.52,3.58,3.58,5.5,8.62,5.5,14.68v.19c0,10.37-5.59,16.88-13.76,19.91l15.69,22.94h-16.51l-13.76-20.55h-11.1v20.55h-14.13v-64.23ZM1424.48,581.63c6.89,0,10.83-3.67,10.83-9.08v-.19c0-6.05-4.22-9.17-11.1-9.17h-14.04v18.44h14.31Z"/>
    <path class="cls-1" d="M1476.91,550.43h14.13v64.23h-14.13v-64.23Z"/>
    <path class="cls-1" d="M1518.17,582.73v-.18c0-18.26,14.4-33.22,34.22-33.22s34.04,14.77,34.04,33.03v.19c0,18.26-14.41,33.21-34.23,33.21s-34.04-14.77-34.04-33.03ZM1571.65,582.73v-.18c0-11.01-8.07-20.19-19.45-20.19s-19.27,8.99-19.27,20v.19c0,11.01,8.08,20.18,19.45,20.18s19.27-8.99,19.27-20Z"/>
    <path class="cls-1" d="M1625.09,563.46h-19.54v-13.03h53.21v13.03h-19.54v51.2h-14.13v-51.2Z"/>
    <path class="cls-1" d="M1698.45,563.46h-19.54v-13.03h53.21v13.03h-19.54v51.2h-14.13v-51.2Z"/>
  </g>
  <g>
    <path class="cls-2" d="M268.01,678v-20.26c2.51.42,4.8.63,7.1.63,7.1,0,11.9-3.76,11.9-13.36v-110.26h25.27v111.72c0,22.34-11.48,32.58-32.16,32.58-4.8,0-8.14-.42-12.11-1.04ZM285.97,493.82h27.15v24.01h-27.15v-24.01Z"/>
    <path class="cls-2" d="M347.78,604.92v-70.16h25.27v62.65c0,17.12,8.56,26.94,23.6,26.94s24.85-10.23,24.85-27.36v-62.23h25.27v110.26h-25.27v-17.12c-7.1,10.44-17.33,19.42-34.45,19.42-24.85,0-39.26-16.71-39.26-42.39Z"/>
    <path class="cls-2" d="M482.26,534.75h25.27v17.12c7.1-10.44,17.33-19.42,34.45-19.42,24.85,0,39.26,16.71,39.26,42.39v70.16h-25.27v-62.65c0-17.12-8.56-26.94-23.6-26.94s-24.85,10.23-24.85,27.36v62.23h-25.27v-110.26Z"/>
    <path class="cls-2" d="M615.9,493.82h27.15v24.01h-27.15v-24.01ZM616.94,534.75h25.27v110.26h-25.27v-110.26Z"/>
    <path class="cls-2" d="M672.91,590.51v-.42c0-31.53,25.06-57.63,58.89-57.63s58.68,25.68,58.68,57.22v.42c0,31.32-25.06,57.43-59.09,57.43s-58.47-25.68-58.47-57.01ZM765.21,590.51v-.42c0-19.42-13.99-35.5-33.83-35.5s-33.2,15.87-33.2,35.08v.42c0,19.21,13.99,35.5,33.62,35.5s33.41-16.08,33.41-35.08Z"/>
    <path class="cls-2" d="M819.92,534.75h25.27v24.85c6.89-16.5,19.63-27.77,39.05-26.94v26.73h-1.46c-22.13,0-37.59,14.41-37.59,43.64v41.97h-25.27v-110.26Z"/>
  </g>
</svg>