<?xml version="1.0" encoding="UTF-8"?>
<svg id="Capa_4" data-name="Capa 4" xmlns="http://www.w3.org/2000/svg" viewBox="0 0 425.2 425.2">
  <defs>
    <style>
      .cls-1 {
        fill: #53284f;
      }

      .cls-2 {
        fill: #fff;
      }

      .cls-3 {
        fill: #bc2f2c;
      }

      .cls-4 {
        fill: #52274e;
      }
    </style>
  </defs>
  <rect class="cls-2" x="0" y=".39" width="425.2" height="425.2"/>
  <g>
    <path class="cls-3" d="M371.4,215.34v-3.29h1.13c.38,0,.66.03.84.09.17.06.31.16.41.32.1.15.15.31.15.48,0,.24-.09.45-.26.63-.17.18-.4.28-.68.3.12.05.21.11.28.17.13.13.3.34.49.65l.4.64h-.65l-.29-.52c-.23-.41-.42-.66-.55-.76-.1-.08-.24-.12-.43-.12h-.31v1.4h-.53ZM371.92,213.49h.65c.31,0,.52-.05.63-.14.11-.09.17-.21.17-.36,0-.09-.03-.18-.08-.26-.05-.08-.13-.14-.23-.17-.09-.04-.27-.06-.53-.06h-.6v.99Z"/>
    <g>
      <polygon class="cls-1" points="191.54 301.04 196.74 301.04 196.74 269.38 191.54 269.38 191.54 268.74 206.62 268.74 206.62 269.38 201.42 269.38 201.42 284.52 217.02 284.52 217.02 269.38 211.82 269.38 211.82 268.74 226.91 268.74 226.91 269.38 221.7 269.38 221.7 301.04 226.91 301.04 226.91 301.68 211.82 301.68 211.82 301.04 217.02 301.04 217.02 285.17 201.42 285.17 201.42 301.04 206.62 301.04 206.62 301.68 191.54 301.68 191.54 301.04"/>
      <path class="cls-1" d="M232.9,278.43c.93-2.11,2.21-3.96,3.82-5.55,1.61-1.59,3.38-2.81,5.32-3.68,1.93-.86,3.86-1.29,5.76-1.29,2.03,0,4.03.43,5.99,1.29,1.97.86,3.73,2.08,5.29,3.65,1.56,1.57,2.79,3.42,3.68,5.53.89,2.12,1.33,4.38,1.33,6.78,0,2.13-.41,4.23-1.24,6.29-.82,2.07-1.99,3.92-3.49,5.57-1.5,1.65-3.25,2.95-5.25,3.91-2,.96-4.11,1.44-6.32,1.44s-4.43-.47-6.44-1.39c-2.01-.93-3.76-2.21-5.23-3.84-1.46-1.64-2.6-3.49-3.41-5.55-.81-2.07-1.22-4.22-1.22-6.43,0-2.38.47-4.62,1.41-6.73M239.39,297.73c1.67,2.67,4.48,4,8.41,4s6.73-1.33,8.41-4c1.67-2.66,2.51-6.86,2.51-12.56,0-2.34-.15-4.49-.47-6.44-.31-1.94-.86-3.67-1.64-5.2-.78-1.52-1.9-2.74-3.35-3.63-1.45-.9-3.27-1.34-5.45-1.34s-4.01.45-5.46,1.34c-1.45.89-2.57,2.11-3.35,3.63-.78,1.53-1.33,3.26-1.64,5.2-.31,1.95-.47,4.09-.47,6.44,0,5.71.83,9.9,2.5,12.56"/>
      <path class="cls-1" d="M275.3,301.04h5.2v-31.65h-2.72c-.84,0-1.62.06-2.32.19-.7.12-1.45.44-2.25.95-.79.51-1.55,1.3-2.27,2.38-.72,1.08-1.33,2.52-1.83,4.3h-.51v-8.47h28.49v8.47h-.52c-.5-1.79-1.11-3.22-1.83-4.3-.72-1.08-1.47-1.87-2.27-2.38-.79-.51-1.54-.82-2.25-.95-.7-.13-1.47-.19-2.32-.19h-2.72v31.65h5.2v.65h-15.09v-.65Z"/>
      <path class="cls-1" d="M300.27,301.04h5.2v-31.65h-5.2v-.65h26.8v8h-.52c-.85-2.59-1.88-4.46-3.12-5.62-1.23-1.16-3.06-1.74-5.5-1.74h-7.78v14.3h3.04c1.1,0,1.99-.11,2.7-.3.7-.2,1.3-.54,1.78-1.02.48-.47.91-1.16,1.28-2.03.38-.88.74-2.03,1.08-3.45h.52v14.39h-.52l-.04-.14c-.28-1.21-.54-2.15-.75-2.85-.22-.69-.54-1.35-.97-1.97-.42-.61-.98-1.1-1.68-1.46-.7-.35-1.58-.53-2.65-.53h-3.79v16.7h8.85c1.59,0,2.98-.33,4.15-1,1.17-.67,2.12-1.5,2.84-2.52.72-1.02,1.26-2.05,1.61-3.1.36-1.05.6-2,.73-2.88h.52v10.14h-28.58v-.65Z"/>
      <path class="cls-1" d="M333.25,301.04h5.2v-31.65h-5.2v-.65h15.08v.65h-5.2v31.65h8.34c2.66,0,4.78-.82,6.39-2.45,1.61-1.64,2.77-3.98,3.49-7.04h.52v10.14h-28.63v-.65Z"/>
    </g>
    <g>
      <polygon class="cls-1" points="122.18 194.25 137.19 194.25 137.19 101.75 122.18 101.75 122.18 99.85 165.73 99.85 165.73 101.75 150.72 101.75 150.72 145.97 195.75 145.97 195.75 101.75 180.74 101.75 180.74 99.85 224.29 99.85 224.29 101.75 209.28 101.75 209.28 194.25 224.29 194.25 224.29 196.15 180.74 196.15 180.74 194.25 195.75 194.25 195.75 147.87 150.72 147.87 150.72 194.25 165.73 194.25 165.73 196.15 122.18 196.15 122.18 194.25"/>
      <path class="cls-1" d="M226.17,167.07h1.49c1.44,6.85,3.44,12.33,6.01,16.43,2.57,4.1,5.37,7.03,8.39,8.79,3.02,1.76,5.93,2.86,8.73,3.31,2.79.45,6.04.68,9.74.68,4.51,0,8.34-.68,11.49-2.03,3.16-1.35,5.64-3.13,7.44-5.34,1.8-2.21,3.09-4.58,3.85-7.1.77-2.52,1.15-5,1.15-7.44,0-2.98-.56-5.61-1.69-7.91-1.13-2.3-2.57-4.24-4.33-5.82-1.76-1.58-3.68-2.86-5.75-3.85-2.08-.99-4.19-1.8-6.35-2.43l-15.55-4.73c-7.48-2.25-13.05-5.27-16.71-9.06-3.65-3.79-5.47-8.7-5.47-14.74,0-4.06.72-7.82,2.16-11.29,1.44-3.47,3.49-6.49,6.15-9.06,2.66-2.57,5.82-4.55,9.47-5.95,3.65-1.4,7.59-2.1,11.83-2.1,3.33,0,6.1.32,8.31.95,2.21.63,4.53,1.49,6.97,2.57,2.61,1.17,4.6,1.76,5.95,1.76,1.17,0,1.98-.16,2.43-.47.45-.32.99-1.1,1.62-2.37h1.89v24.48h-1.62c-1.17-7.12-3.92-13.07-8.25-17.85-4.33-4.78-10.1-7.17-17.31-7.17-2.43,0-4.94.31-7.51.95-2.57.63-4.99,1.67-7.24,3.11-2.25,1.44-4.08,3.36-5.48,5.75-1.4,2.39-2.1,5.3-2.1,8.72,0,2.79.54,5.21,1.62,7.24,1.08,2.03,2.52,3.72,4.33,5.07,1.8,1.35,3.76,2.48,5.88,3.38,2.12.9,4.67,1.85,7.64,2.84l16.36,5.14,1.22.41c2.7.81,5.16,1.69,7.37,2.64,2.21.95,4.44,2.32,6.69,4.12,2.25,1.81,4.13,4.17,5.61,7.1,1.49,2.93,2.23,6.42,2.23,10.48s-.79,8.27-2.37,12.1c-1.58,3.83-3.88,7.24-6.9,10.21-3.02,2.97-6.65,5.32-10.89,7.03-4.24,1.71-8.97,2.57-14.2,2.57-3.7,0-6.68-.14-8.92-.41-2.26-.27-4.96-.81-8.12-1.62-.63-.18-1.54-.49-2.7-.95-2.08-.63-3.74-1.13-5-1.49-1.27-.36-2.44-.54-3.52-.54-1.26,0-2.17.23-2.7.68-.54.45-.99,1.22-1.35,2.3h-2.03v-29.08Z"/>
    </g>
    <polygon class="cls-3" points="49.42 253.21 56.17 253.21 56.17 211.62 49.42 211.62 49.42 210.76 69 210.76 69 211.62 62.25 211.62 62.25 231.5 82.5 231.5 82.5 211.62 75.75 211.62 75.75 210.76 95.33 210.76 95.33 211.62 88.58 211.62 88.58 253.21 95.33 253.21 95.33 254.06 75.75 254.06 75.75 253.21 82.5 253.21 82.5 232.35 62.25 232.35 62.25 253.21 69 253.21 69 254.06 49.42 254.06 49.42 253.21"/>
    <path class="cls-3" d="M103.11,223.51c1.22-2.78,2.87-5.21,4.95-7.3,2.09-2.09,4.39-3.7,6.9-4.83,2.51-1.13,5.01-1.7,7.48-1.7,2.64,0,5.23.57,7.78,1.7,2.55,1.14,4.84,2.74,6.87,4.8,2.03,2.07,3.62,4.49,4.77,7.27,1.15,2.78,1.73,5.75,1.73,8.91,0,2.8-.54,5.55-1.61,8.27-1.07,2.72-2.58,5.16-4.53,7.33-1.95,2.17-4.22,3.88-6.81,5.14-2.59,1.26-5.33,1.88-8.21,1.88s-5.75-.61-8.36-1.82c-2.62-1.22-4.88-2.9-6.78-5.05-1.91-2.15-3.39-4.58-4.44-7.3-1.05-2.72-1.58-5.53-1.58-8.45,0-3.12.61-6.07,1.83-8.85M111.53,248.86c2.17,3.51,5.81,5.26,10.91,5.26s8.75-1.76,10.92-5.26c2.17-3.51,3.25-9.01,3.25-16.51,0-3.08-.2-5.9-.61-8.45-.41-2.55-1.11-4.83-2.13-6.84-1.02-2-2.47-3.6-4.35-4.77-1.89-1.18-4.25-1.77-7.08-1.77s-5.2.59-7.08,1.77c-1.89,1.18-3.34,2.77-4.35,4.77-1.01,2.01-1.72,4.29-2.13,6.84-.41,2.56-.61,5.37-.61,8.45,0,7.5,1.08,13,3.25,16.51"/>
    <path class="cls-3" d="M158.15,253.21h6.75v-41.6h-3.53c-1.09,0-2.1.08-3.01.24-.91.16-1.88.58-2.92,1.25-1.03.67-2.02,1.71-2.95,3.13-.93,1.42-1.72,3.31-2.37,5.66h-.67v-11.13h36.97v11.13h-.67c-.65-2.35-1.44-4.24-2.37-5.66-.93-1.42-1.91-2.46-2.95-3.13-1.03-.67-2.01-1.08-2.92-1.25-.91-.16-1.92-.24-3.01-.24h-3.53v41.6h6.75v.85h-19.58v-.85Z"/>
    <path class="cls-3" d="M193.29,240.99h.67c.65,3.08,1.55,5.54,2.71,7.39,1.16,1.85,2.41,3.16,3.77,3.95,1.36.79,2.67,1.29,3.92,1.49,1.26.2,2.72.31,4.38.31,2.02,0,3.75-.31,5.17-.91,1.42-.61,2.53-1.41,3.34-2.4.81-.99,1.39-2.06,1.74-3.19.34-1.13.52-2.25.52-3.34,0-1.34-.25-2.53-.76-3.56-.51-1.03-1.16-1.91-1.95-2.61-.79-.71-1.65-1.29-2.58-1.74-.93-.44-1.89-.81-2.86-1.09l-6.99-2.13c-3.37-1.01-5.87-2.37-7.51-4.07-1.64-1.7-2.46-3.91-2.46-6.63,0-1.82.32-3.52.97-5.08.65-1.56,1.57-2.92,2.77-4.08,1.2-1.15,2.62-2.05,4.26-2.68,1.64-.63,3.41-.94,5.32-.94,1.5,0,2.75.14,3.74.43.99.29,2.04.67,3.13,1.16,1.18.53,2.07.79,2.67.79.53,0,.89-.07,1.1-.22.2-.14.45-.5.73-1.06h.85v11.01h-.73c-.53-3.2-1.76-5.88-3.71-8.02-1.94-2.15-4.54-3.22-7.78-3.22-1.1,0-2.22.14-3.38.43-1.15.28-2.24.75-3.25,1.4-1.01.65-1.84,1.51-2.46,2.59-.63,1.07-.94,2.38-.94,3.92,0,1.26.25,2.34.73,3.25.49.91,1.13,1.67,1.94,2.28.81.61,1.69,1.12,2.64,1.52.95.4,2.1.83,3.44,1.27l7.36,2.31.55.18c1.21.37,2.32.76,3.31,1.19.99.43,2,1.04,3.01,1.85,1.01.81,1.85,1.87,2.53,3.19.67,1.32,1,2.89,1,4.71s-.36,3.72-1.06,5.44c-.71,1.72-1.74,3.25-3.1,4.59-1.36,1.34-2.99,2.39-4.89,3.16-1.9.77-4.04,1.16-6.38,1.16-1.66,0-3-.06-4.01-.18-1.01-.12-2.23-.36-3.65-.73-.28-.08-.69-.22-1.22-.43-.93-.28-1.68-.51-2.25-.67-.57-.16-1.09-.24-1.58-.24-.57,0-.97.1-1.22.3-.24.21-.45.55-.61,1.03h-.91v-13.07Z"/>
    <path class="cls-3" d="M233.85,240.99h.67c.65,3.08,1.55,5.54,2.7,7.39,1.16,1.85,2.41,3.16,3.77,3.95,1.36.79,2.66,1.29,3.92,1.49,1.26.2,2.72.31,4.38.31,2.03,0,3.75-.31,5.17-.91,1.42-.61,2.53-1.41,3.34-2.4.81-.99,1.39-2.06,1.73-3.19.34-1.13.52-2.25.52-3.34,0-1.34-.26-2.53-.76-3.56-.51-1.03-1.16-1.91-1.95-2.61-.79-.71-1.65-1.29-2.59-1.74-.93-.44-1.88-.81-2.86-1.09l-6.99-2.13c-3.37-1.01-5.87-2.37-7.51-4.07-1.64-1.7-2.47-3.91-2.47-6.63,0-1.82.33-3.52.97-5.08.65-1.56,1.57-2.92,2.77-4.08,1.2-1.15,2.61-2.05,4.26-2.68,1.64-.63,3.41-.94,5.32-.94,1.5,0,2.75.14,3.74.43.99.29,2.04.67,3.13,1.16,1.18.53,2.07.79,2.68.79.53,0,.89-.07,1.1-.22.2-.14.44-.5.73-1.06h.85v11.01h-.73c-.53-3.2-1.76-5.88-3.71-8.02-1.95-2.15-4.54-3.22-7.78-3.22-1.09,0-2.22.14-3.38.43-1.15.28-2.24.75-3.25,1.4-1.02.65-1.83,1.51-2.46,2.59-.63,1.07-.94,2.38-.94,3.92,0,1.26.24,2.34.73,3.25.48.91,1.13,1.67,1.94,2.28.81.61,1.69,1.12,2.65,1.52.95.4,2.1.83,3.44,1.27l7.36,2.31.55.18c1.22.37,2.32.76,3.32,1.19.99.43,2,1.04,3.01,1.85,1.01.81,1.85,1.87,2.52,3.19.67,1.32,1,2.89,1,4.71s-.36,3.72-1.06,5.44c-.71,1.72-1.74,3.25-3.1,4.59-1.36,1.34-2.99,2.39-4.89,3.16-1.91.77-4.03,1.16-6.39,1.16-1.66,0-3-.06-4.01-.18-1.01-.12-2.23-.36-3.65-.73-.28-.08-.69-.22-1.22-.43-.93-.28-1.68-.51-2.25-.67-.57-.16-1.09-.24-1.58-.24-.57,0-.97.1-1.22.3-.24.21-.44.55-.61,1.03h-.91v-13.07Z"/>
    <path class="cls-3" d="M275.81,223.51c1.22-2.78,2.87-5.21,4.96-7.3,2.08-2.09,4.39-3.7,6.9-4.83,2.51-1.13,5.01-1.7,7.48-1.7,2.64,0,5.23.57,7.78,1.7,2.56,1.14,4.85,2.74,6.87,4.8,2.02,2.07,3.62,4.49,4.77,7.27,1.16,2.78,1.74,5.75,1.74,8.91,0,2.8-.54,5.55-1.61,8.27-1.07,2.72-2.59,5.16-4.53,7.33-1.94,2.17-4.22,3.88-6.81,5.14-2.59,1.26-5.33,1.88-8.21,1.88s-5.75-.61-8.36-1.82c-2.62-1.22-4.88-2.9-6.78-5.05-1.9-2.15-3.39-4.58-4.44-7.3-1.06-2.72-1.58-5.53-1.58-8.45,0-3.12.61-6.07,1.83-8.85M284.24,248.86c2.17,3.51,5.81,5.26,10.92,5.26s8.75-1.76,10.91-5.26c2.17-3.51,3.26-9.01,3.26-16.51,0-3.08-.2-5.9-.61-8.45-.4-2.55-1.11-4.83-2.13-6.84-1.02-2-2.46-3.6-4.35-4.77-1.88-1.18-4.25-1.77-7.08-1.77s-5.2.59-7.08,1.77c-1.89,1.18-3.33,2.77-4.35,4.77-1.01,2.01-1.72,4.29-2.13,6.84-.41,2.56-.61,5.37-.61,8.45,0,7.5,1.08,13,3.25,16.51"/>
    <polygon class="cls-3" points="321.72 253.21 328.48 253.21 328.48 211.62 321.72 211.62 321.72 210.76 334.74 210.76 359.9 244.4 360.03 244.4 360.04 211.62 353.29 211.62 353.29 210.76 367.64 210.76 367.64 211.62 360.89 211.62 360.9 254.91 360.05 254.91 329.51 214.11 329.39 214.11 329.39 253.21 336.14 253.21 336.14 254.06 321.72 254.06 321.72 253.21"/>
    <path class="cls-3" d="M372.73,211.01c1.45,0,2.63,1.18,2.63,2.64s-1.18,2.64-2.63,2.64-2.64-1.18-2.64-2.64,1.18-2.64,2.64-2.64M372.73,210.6c-1.69,0-3.05,1.36-3.05,3.05s1.36,3.05,3.05,3.05,3.05-1.36,3.05-3.05-1.36-3.05-3.05-3.05"/>
    <g>
      <g>
        <path class="cls-4" d="M217.83,316.56h1.18v10.1h6.23v1.02h-7.4v-11.12Z"/>
        <path class="cls-4" d="M235.45,326.67v1.02h-7.86v-11.12h7.62v1.02h-6.45v3.96h5.75v1h-5.75v4.13h6.69Z"/>
        <path class="cls-4" d="M237.57,322.12c0-3.24,2.48-5.65,5.85-5.65s5.83,2.4,5.83,5.65-2.49,5.66-5.83,5.66-5.85-2.41-5.85-5.66ZM248.07,322.12c0-2.65-1.99-4.61-4.65-4.61s-4.69,1.95-4.69,4.61,2,4.61,4.69,4.61,4.65-1.95,4.65-4.61ZM244.56,313.69h1.51l-2.57,1.97h-1.11l2.18-1.97Z"/>
        <path class="cls-4" d="M261.58,316.56v11.12h-.97l-7.15-9.02v9.02h-1.18v-11.12h.97l7.16,9.02v-9.02h1.16Z"/>
      </g>
      <g>
        <path class="cls-4" d="M288.69,316.56v11.12h-1.13v-8.9l-4.37,7.48h-.56l-4.37-7.43v8.85h-1.13v-11.12h.97l4.83,8.24,4.78-8.24h.97Z"/>
        <path class="cls-4" d="M300.58,326.67v1.02h-7.86v-11.12h7.62v1.02h-6.45v3.96h5.75v1h-5.75v4.13h6.69ZM296.62,315.66h-1.11l2.18-1.97h1.51l-2.57,1.97Z"/>
        <path class="cls-4" d="M310.58,327.68l-3.59-4.89-3.57,4.89h-1.35l4.23-5.72-3.96-5.4h1.35l3.35,4.54,3.34-4.54h1.27l-3.94,5.37,4.24,5.75h-1.37Z"/>
        <path class="cls-4" d="M314.05,316.56h1.18v11.12h-1.18v-11.12Z"/>
        <path class="cls-4" d="M318.26,322.12c0-3.26,2.48-5.65,5.83-5.65,1.62,0,3.08.54,4.07,1.62l-.75.75c-.91-.92-2.02-1.32-3.29-1.32-2.69,0-4.7,1.97-4.7,4.61s2.02,4.61,4.7,4.61c1.27,0,2.38-.4,3.29-1.33l.75.75c-.98,1.08-2.45,1.64-4.08,1.64-3.34,0-5.81-2.4-5.81-5.66Z"/>
        <path class="cls-4" d="M329.84,322.12c0-3.24,2.48-5.65,5.85-5.65s5.83,2.4,5.83,5.65-2.49,5.66-5.83,5.66-5.85-2.41-5.85-5.66ZM340.34,322.12c0-2.65-1.99-4.61-4.65-4.61s-4.69,1.95-4.69,4.61,2,4.61,4.69,4.61,4.65-1.95,4.65-4.61Z"/>
      </g>
      <path class="cls-1" d="M268.09,321.98c0-.19.04-.36.11-.52.07-.16.17-.31.29-.43.12-.12.26-.22.43-.29.16-.07.34-.1.52-.1s.36.03.52.1c.16.07.31.17.43.29.12.12.22.26.29.43.07.16.1.34.1.52s-.03.36-.1.52c-.07.17-.17.31-.29.43-.12.12-.27.22-.43.29-.16.07-.34.11-.52.11s-.36-.04-.52-.11c-.16-.07-.31-.17-.43-.29-.12-.12-.22-.27-.29-.43-.07-.16-.11-.34-.11-.52Z"/>
    </g>
  </g>
</svg>