<?xml version="1.0" encoding="UTF-8"?>
<svg id="Capa_1" data-name="Capa 1" xmlns="http://www.w3.org/2000/svg" viewBox="0 0 425.2 425.2">
  <defs>
    <style>
      .cls-1 {
        fill: #53284f;
      }

      .cls-2 {
        fill: #fff;
      }

      .cls-3 {
        fill: #bc2f2c;
      }
    </style>
  </defs>
  <rect class="cls-2" y="0" width="425.2" height="425.2"/>
  <g>
    <path class="cls-3" d="M348.81,213.97v-2.82h.97c.33,0,.57.03.72.08.14.05.26.14.35.27.09.13.13.27.13.41,0,.2-.08.39-.22.54-.15.15-.34.24-.59.26.1.04.18.09.24.15.12.11.25.29.42.56l.35.55h-.56l-.25-.44c-.2-.35-.36-.57-.48-.65-.08-.07-.21-.1-.37-.1h-.27v1.2h-.45ZM349.26,212.38h.55c.26,0,.44-.04.54-.12.1-.08.14-.18.14-.31,0-.08-.02-.16-.07-.22-.05-.07-.11-.12-.19-.15-.08-.03-.23-.05-.45-.05h-.52v.85Z"/>
    <g>
      <polygon class="cls-1" points="194.53 287.48 198.99 287.48 198.99 260.33 194.53 260.33 194.53 259.78 207.47 259.78 207.47 260.33 203.01 260.33 203.01 273.31 216.39 273.31 216.39 260.33 211.93 260.33 211.93 259.78 224.87 259.78 224.87 260.33 220.41 260.33 220.41 287.48 224.87 287.48 224.87 288.03 211.93 288.03 211.93 287.48 216.39 287.48 216.39 273.87 203.01 273.87 203.01 287.48 207.47 287.48 207.47 288.03 194.53 288.03 194.53 287.48"/>
      <path class="cls-1" d="M230.02,268.09c.8-1.81,1.9-3.4,3.28-4.76,1.38-1.36,2.9-2.41,4.56-3.16,1.66-.74,3.31-1.11,4.94-1.11,1.74,0,3.45.37,5.14,1.11,1.69.74,3.2,1.78,4.54,3.13,1.34,1.35,2.39,2.93,3.15,4.74.77,1.82,1.14,3.75,1.14,5.82,0,1.82-.35,3.62-1.06,5.4-.71,1.77-1.71,3.37-2.99,4.78-1.29,1.42-2.79,2.53-4.5,3.35-1.71.82-3.52,1.23-5.42,1.23s-3.8-.4-5.53-1.19c-1.73-.8-3.22-1.89-4.49-3.3-1.26-1.4-2.23-2.99-2.93-4.76-.7-1.78-1.05-3.62-1.05-5.52,0-2.04.4-3.96,1.21-5.78M235.58,284.64c1.43,2.29,3.84,3.43,7.22,3.43s5.78-1.14,7.21-3.43c1.43-2.29,2.15-5.88,2.15-10.78,0-2.01-.13-3.85-.4-5.52-.27-1.66-.74-3.15-1.41-4.46-.67-1.31-1.63-2.35-2.88-3.11-1.24-.77-2.8-1.15-4.68-1.15s-3.44.38-4.69,1.15c-1.24.76-2.2,1.81-2.87,3.11-.67,1.31-1.14,2.8-1.4,4.46-.27,1.67-.4,3.51-.4,5.52,0,4.89.72,8.49,2.15,10.78"/>
      <path class="cls-1" d="M266.38,287.48h4.46v-27.15h-2.33c-.72,0-1.39.05-1.99.16-.6.1-1.24.38-1.93.81-.68.44-1.33,1.12-1.95,2.04-.62.93-1.14,2.16-1.57,3.69h-.44v-7.26h24.44v7.26h-.44c-.43-1.53-.95-2.76-1.57-3.69-.62-.93-1.26-1.61-1.95-2.04-.68-.43-1.32-.71-1.93-.81-.6-.11-1.26-.16-1.99-.16h-2.33v27.15h4.46v.55h-12.94v-.55Z"/>
      <path class="cls-1" d="M287.8,287.48h4.46v-27.15h-4.46v-.55h22.99v6.87h-.45c-.73-2.22-1.61-3.83-2.67-4.82-1.06-.99-2.63-1.49-4.72-1.49h-6.67v12.27h2.61c.94,0,1.71-.09,2.31-.26.6-.17,1.11-.47,1.53-.87.42-.41.78-.99,1.1-1.74.33-.75.63-1.74.92-2.96h.44v12.34h-.44l-.04-.12c-.24-1.04-.46-1.84-.64-2.44-.19-.59-.46-1.16-.83-1.69-.36-.53-.84-.95-1.44-1.25-.6-.3-1.36-.45-2.27-.45h-3.25v14.33h7.59c1.37,0,2.55-.28,3.56-.86,1-.57,1.82-1.29,2.43-2.16.62-.87,1.08-1.75,1.38-2.66.31-.9.52-1.72.62-2.47h.44v8.69h-24.52v-.55Z"/>
      <path class="cls-1" d="M316.09,287.48h4.46v-27.15h-4.46v-.55h12.94v.55h-4.46v27.15h7.15c2.28,0,4.1-.7,5.49-2.1,1.38-1.41,2.38-3.42,2.99-6.04h.44v8.69h-24.56v-.55Z"/>
    </g>
    <g>
      <polygon class="cls-1" points="135.04 195.88 147.92 195.88 147.92 116.53 135.04 116.53 135.04 114.91 172.4 114.91 172.4 116.53 159.52 116.53 159.52 154.47 198.15 154.47 198.15 116.53 185.27 116.53 185.27 114.91 222.63 114.91 222.63 116.53 209.75 116.53 209.75 195.88 222.63 195.88 222.63 197.51 185.27 197.51 185.27 195.88 198.15 195.88 198.15 156.09 159.52 156.09 159.52 195.88 172.4 195.88 172.4 197.51 135.04 197.51 135.04 195.88"/>
      <path class="cls-1" d="M224.24,172.56h1.28c1.23,5.88,2.96,10.58,5.16,14.09,2.21,3.52,4.6,6.03,7.19,7.54,2.59,1.51,5.09,2.46,7.48,2.84,2.4.39,5.18.58,8.35.58,3.87,0,7.15-.58,9.86-1.74,2.71-1.16,4.83-2.69,6.38-4.58,1.55-1.89,2.65-3.93,3.31-6.09.66-2.16.99-4.29.99-6.38,0-2.55-.48-4.81-1.45-6.79-.97-1.97-2.2-3.63-3.71-4.99-1.51-1.35-3.15-2.46-4.93-3.31-1.78-.85-3.6-1.55-5.45-2.09l-13.34-4.06c-6.42-1.93-11.2-4.52-14.33-7.77-3.13-3.25-4.7-7.46-4.7-12.64,0-3.48.62-6.71,1.86-9.69,1.24-2.98,2.99-5.57,5.28-7.77,2.28-2.2,4.99-3.91,8.12-5.1,3.13-1.2,6.51-1.8,10.15-1.8,2.86,0,5.24.27,7.13.81,1.9.54,3.89,1.28,5.98,2.21,2.24,1,3.94,1.51,5.1,1.51,1.01,0,1.7-.13,2.09-.41.39-.27.85-.95,1.39-2.03h1.62v21h-1.39c-1.01-6.11-3.37-11.21-7.08-15.31-3.71-4.1-8.66-6.15-14.85-6.15-2.09,0-4.24.27-6.44.81-2.21.54-4.28,1.43-6.21,2.67-1.93,1.24-3.5,2.88-4.7,4.93-1.2,2.05-1.8,4.54-1.8,7.48,0,2.4.46,4.47,1.39,6.21.93,1.74,2.16,3.19,3.71,4.35,1.55,1.16,3.23,2.13,5.05,2.9,1.82.77,4,1.59,6.55,2.44l14.04,4.41,1.04.35c2.32.7,4.43,1.45,6.32,2.26,1.9.81,3.81,1.99,5.74,3.54,1.93,1.55,3.54,3.58,4.82,6.09,1.28,2.51,1.91,5.51,1.91,8.99s-.68,7.1-2.03,10.38c-1.35,3.29-3.33,6.21-5.92,8.76-2.59,2.55-5.7,4.56-9.34,6.03-3.64,1.47-7.69,2.2-12.18,2.2-3.17,0-5.73-.12-7.66-.35-1.94-.23-4.26-.69-6.96-1.39-.54-.15-1.32-.42-2.32-.81-1.78-.54-3.21-.97-4.29-1.28-1.09-.31-2.09-.46-3.02-.46-1.08,0-1.86.2-2.32.58-.46.39-.85,1.04-1.16,1.97h-1.74v-24.94Z"/>
    </g>
    <polygon class="cls-3" points="72.62 246.46 78.41 246.46 78.41 210.78 72.62 210.78 72.62 210.05 89.42 210.05 89.42 210.78 83.63 210.78 83.63 227.84 101 227.84 101 210.78 95.21 210.78 95.21 210.05 112.01 210.05 112.01 210.78 106.21 210.78 106.21 246.46 112.01 246.46 112.01 247.19 95.21 247.19 95.21 246.46 101 246.46 101 228.56 83.63 228.56 83.63 246.46 89.42 246.46 89.42 247.19 72.62 247.19 72.62 246.46"/>
    <path class="cls-3" d="M118.68,220.98c1.04-2.38,2.46-4.47,4.25-6.26,1.79-1.79,3.76-3.17,5.92-4.15,2.16-.97,4.29-1.46,6.42-1.46,2.26,0,4.49.49,6.68,1.46,2.19.97,4.15,2.35,5.89,4.12,1.74,1.77,3.1,3.85,4.1,6.24.99,2.38,1.49,4.93,1.49,7.64,0,2.4-.46,4.76-1.38,7.09-.92,2.33-2.22,4.43-3.89,6.29-1.67,1.86-3.62,3.33-5.84,4.41-2.23,1.08-4.57,1.62-7.04,1.62s-4.93-.52-7.17-1.56c-2.24-1.04-4.18-2.49-5.82-4.33-1.64-1.84-2.9-3.93-3.81-6.26-.9-2.33-1.36-4.75-1.36-7.25,0-2.68.52-5.21,1.57-7.59M125.91,242.73c1.86,3.01,4.98,4.51,9.36,4.51s7.5-1.51,9.36-4.51c1.86-3.01,2.79-7.73,2.79-14.16,0-2.64-.18-5.06-.52-7.25-.35-2.19-.96-4.15-1.82-5.87-.87-1.72-2.11-3.08-3.73-4.09-1.62-1.01-3.64-1.51-6.08-1.51s-4.46.51-6.08,1.51c-1.62,1.01-2.86,2.37-3.73,4.09-.87,1.72-1.48,3.68-1.83,5.87-.35,2.19-.52,4.61-.52,7.25,0,6.43.93,11.15,2.79,14.16"/>
    <path class="cls-3" d="M165.89,246.46h5.79v-35.68h-3.03c-.94,0-1.8.07-2.58.21-.78.14-1.62.5-2.5,1.07-.89.57-1.73,1.47-2.53,2.69-.8,1.22-1.48,2.84-2.03,4.85h-.57v-9.55h31.72v9.55h-.57c-.56-2.02-1.24-3.63-2.04-4.85-.8-1.22-1.64-2.11-2.53-2.69-.89-.57-1.72-.93-2.5-1.07-.78-.14-1.64-.21-2.58-.21h-3.02v35.68h5.79v.73h-16.8v-.73Z"/>
    <path class="cls-3" d="M196.04,235.97h.57c.56,2.64,1.33,4.76,2.32,6.34.99,1.58,2.07,2.71,3.23,3.39,1.16.68,2.29,1.1,3.37,1.28,1.08.17,2.33.26,3.76.26,1.74,0,3.22-.26,4.43-.78,1.22-.52,2.17-1.21,2.87-2.06.7-.85,1.19-1.76,1.49-2.74.29-.97.44-1.93.44-2.87,0-1.15-.22-2.17-.65-3.05-.44-.89-.99-1.64-1.67-2.24-.68-.61-1.42-1.11-2.22-1.49-.8-.38-1.62-.7-2.45-.94l-6-1.83c-2.89-.87-5.03-2.03-6.44-3.49-1.41-1.46-2.11-3.36-2.11-5.69,0-1.56.28-3.02.84-4.35.56-1.34,1.35-2.5,2.37-3.5,1.03-.99,2.24-1.75,3.65-2.3,1.41-.54,2.93-.81,4.56-.81,1.29,0,2.36.12,3.21.37.85.24,1.75.57,2.69.99,1.01.45,1.77.68,2.29.68.45,0,.76-.06.94-.18.17-.12.38-.43.63-.91h.73v9.44h-.62c-.45-2.75-1.51-5.04-3.18-6.88-1.67-1.84-3.89-2.77-6.68-2.77-.94,0-1.9.12-2.9.37-.99.24-1.92.64-2.79,1.2-.87.56-1.57,1.3-2.11,2.22-.54.92-.81,2.04-.81,3.36,0,1.08.21,2.01.63,2.79.42.78.97,1.43,1.67,1.95.7.52,1.45.96,2.27,1.31.82.35,1.8.71,2.95,1.09l6.31,1.98.47.15c1.04.31,1.99.65,2.84,1.02.85.37,1.71.9,2.58,1.59.87.7,1.59,1.61,2.17,2.74.57,1.13.86,2.48.86,4.04s-.31,3.19-.91,4.67c-.61,1.48-1.5,2.79-2.66,3.94-1.17,1.15-2.56,2.05-4.2,2.71-1.63.66-3.46.99-5.48.99-1.43,0-2.57-.05-3.44-.16-.87-.1-1.91-.31-3.13-.63-.24-.07-.59-.19-1.04-.37-.8-.24-1.44-.43-1.93-.57-.49-.14-.94-.21-1.36-.21-.49,0-.83.09-1.04.26-.21.18-.38.47-.52.89h-.78v-11.21Z"/>
    <path class="cls-3" d="M230.83,235.97h.57c.56,2.64,1.33,4.76,2.32,6.34.99,1.58,2.07,2.71,3.24,3.39,1.16.68,2.29,1.1,3.36,1.28,1.08.17,2.33.26,3.76.26,1.74,0,3.22-.26,4.43-.78,1.22-.52,2.17-1.21,2.87-2.06.69-.85,1.19-1.76,1.49-2.74.3-.97.44-1.93.44-2.87,0-1.15-.22-2.17-.65-3.05-.44-.89-.99-1.64-1.67-2.24-.68-.61-1.42-1.11-2.22-1.49-.8-.38-1.62-.7-2.45-.94l-6-1.83c-2.89-.87-5.03-2.03-6.44-3.49-1.41-1.46-2.11-3.36-2.11-5.69,0-1.56.28-3.02.84-4.35.56-1.34,1.35-2.5,2.37-3.5,1.03-.99,2.24-1.75,3.65-2.3,1.41-.54,2.93-.81,4.56-.81,1.29,0,2.36.12,3.21.37.85.24,1.75.57,2.68.99,1.01.45,1.77.68,2.3.68.45,0,.76-.06.94-.18.17-.12.38-.43.63-.91h.73v9.44h-.63c-.45-2.75-1.51-5.04-3.18-6.88-1.67-1.84-3.9-2.77-6.68-2.77-.94,0-1.9.12-2.9.37-.99.24-1.92.64-2.79,1.2-.87.56-1.57,1.3-2.11,2.22-.54.92-.81,2.04-.81,3.36,0,1.08.21,2.01.63,2.79.42.78.97,1.43,1.67,1.95.7.52,1.45.96,2.27,1.31.82.35,1.8.71,2.95,1.09l6.31,1.98.47.15c1.04.31,1.99.65,2.84,1.02.85.37,1.71.9,2.58,1.59.87.7,1.59,1.61,2.16,2.74.57,1.13.86,2.48.86,4.04s-.3,3.19-.91,4.67c-.61,1.48-1.49,2.79-2.66,3.94-1.16,1.15-2.56,2.05-4.2,2.71-1.63.66-3.46.99-5.48.99-1.43,0-2.57-.05-3.44-.16-.87-.1-1.91-.31-3.13-.63-.24-.07-.59-.19-1.04-.37-.8-.24-1.44-.43-1.93-.57-.49-.14-.94-.21-1.35-.21-.49,0-.84.09-1.05.26-.21.18-.38.47-.52.89h-.78v-11.21Z"/>
    <path class="cls-3" d="M266.82,220.98c1.04-2.38,2.46-4.47,4.25-6.26,1.79-1.79,3.76-3.17,5.92-4.15,2.15-.97,4.29-1.46,6.41-1.46,2.26,0,4.49.49,6.68,1.46,2.19.97,4.16,2.35,5.9,4.12,1.74,1.77,3.1,3.85,4.09,6.24.99,2.38,1.49,4.93,1.49,7.64,0,2.4-.46,4.76-1.38,7.09-.92,2.33-2.22,4.43-3.89,6.29-1.67,1.86-3.62,3.33-5.84,4.41-2.23,1.08-4.57,1.62-7.04,1.62s-4.93-.52-7.17-1.56c-2.24-1.04-4.18-2.49-5.82-4.33-1.63-1.84-2.9-3.93-3.81-6.26-.91-2.33-1.36-4.75-1.36-7.25,0-2.68.52-5.21,1.57-7.59M274.05,242.73c1.86,3.01,4.98,4.51,9.36,4.51s7.5-1.51,9.36-4.51c1.86-3.01,2.79-7.73,2.79-14.16,0-2.64-.18-5.06-.52-7.25-.35-2.19-.96-4.15-1.82-5.87-.87-1.72-2.11-3.08-3.73-4.09-1.61-1.01-3.64-1.51-6.08-1.51s-4.46.51-6.08,1.51c-1.62,1.01-2.86,2.37-3.73,4.09-.87,1.72-1.48,3.68-1.83,5.87-.35,2.19-.52,4.61-.52,7.25,0,6.43.93,11.15,2.79,14.16"/>
    <polygon class="cls-3" points="306.21 246.46 312 246.46 312 210.78 306.21 210.78 306.21 210.05 317.37 210.05 338.95 238.9 339.06 238.9 339.07 210.78 333.28 210.78 333.28 210.05 345.59 210.05 345.59 210.78 339.8 210.78 339.81 247.91 339.08 247.91 312.88 212.92 312.78 212.92 312.78 246.46 318.57 246.46 318.57 247.19 306.21 247.19 306.21 246.46"/>
    <path class="cls-3" d="M349.96,210.26c1.24,0,2.26,1.01,2.26,2.26s-1.02,2.26-2.26,2.26-2.26-1.01-2.26-2.26,1.01-2.26,2.26-2.26M349.96,209.91c-1.45,0-2.62,1.17-2.62,2.61s1.17,2.61,2.62,2.61,2.62-1.17,2.62-2.61-1.17-2.61-2.62-2.61"/>
    <g>
      <g>
        <path class="cls-1" d="M203.88,311.38c-.53.65-1.27,1-2.11,1-1.02,0-1.87-.46-3.01-1.65-2.55-.07-4.42-1.94-4.42-4.43s1.94-4.43,4.58-4.43,4.56,1.88,4.56,4.43c0,2.23-1.48,3.93-3.59,4.34.66.7,1.27,1.01,1.89,1.01.66,0,1.19-.26,1.65-.8l.45.53ZM198.92,309.9c2.09,0,3.64-1.54,3.64-3.61s-1.55-3.61-3.64-3.61-3.67,1.54-3.67,3.61,1.57,3.61,3.67,3.61Z"/>
        <path class="cls-1" d="M205.78,306.93v-4.99h.92v4.95c0,2.06.97,3.01,2.66,3.01s2.67-.95,2.67-3.01v-4.95h.9v4.99c0,2.5-1.34,3.79-3.57,3.79s-3.58-1.29-3.58-3.79Z"/>
        <path class="cls-1" d="M222.17,309.85v.8h-6.16v-8.71h5.97v.8h-5.05v3.1h4.5v.78h-4.5v3.23h5.24Z"/>
        <path class="cls-1" d="M230.58,310.65l-1.99-2.8c-.22.02-.45.04-.7.04h-2.34v2.76h-.92v-8.71h3.26c2.21,0,3.56,1.12,3.56,2.98,0,1.37-.72,2.33-1.99,2.74l2.13,2.98h-1.01ZM230.53,304.93c0-1.39-.92-2.19-2.66-2.19h-2.31v4.37h2.31c1.74,0,2.66-.81,2.66-2.18Z"/>
        <path class="cls-1" d="M240.09,309.85v.8h-6.16v-8.71h5.97v.8h-5.05v3.1h4.5v.78h-4.5v3.23h5.24ZM237,301.23h-.87l1.7-1.54h1.18l-2.01,1.54Z"/>
        <path class="cls-1" d="M244.26,302.74h-3.06v-.8h7.04v.8h-3.06v7.91h-.92v-7.91Z"/>
        <path class="cls-1" d="M255.04,308.32h-4.85l-1.04,2.33h-.96l3.98-8.71h.91l3.98,8.71h-.97l-1.04-2.33ZM254.7,307.58l-2.09-4.68-2.09,4.68h4.18Z"/>
        <path class="cls-1" d="M264.74,310.65l-1.99-2.8c-.22.02-.45.04-.7.04h-2.34v2.76h-.92v-8.71h3.26c2.21,0,3.56,1.12,3.56,2.98,0,1.37-.72,2.33-1.99,2.74l2.13,2.98h-1.01ZM264.69,304.93c0-1.39-.92-2.19-2.66-2.19h-2.31v4.37h2.31c1.74,0,2.66-.81,2.66-2.18Z"/>
        <path class="cls-1" d="M267.33,306.3c0-2.54,1.94-4.43,4.58-4.43s4.56,1.88,4.56,4.43-1.95,4.43-4.56,4.43-4.58-1.89-4.58-4.43ZM275.55,306.3c0-2.08-1.55-3.61-3.64-3.61s-3.67,1.53-3.67,3.61,1.57,3.61,3.67,3.61,3.64-1.53,3.64-3.61Z"/>
      </g>
      <g>
        <path class="cls-1" d="M297.96,301.94v8.71h-.88v-6.96l-3.42,5.86h-.44l-3.42-5.82v6.93h-.88v-8.71h.76l3.78,6.45,3.74-6.45h.76Z"/>
        <path class="cls-1" d="M307.26,309.85v.8h-6.16v-8.71h5.97v.8h-5.05v3.1h4.5v.78h-4.5v3.23h5.24ZM304.16,301.23h-.87l1.7-1.54h1.18l-2.01,1.54Z"/>
        <path class="cls-1" d="M315.08,310.65l-2.81-3.83-2.8,3.83h-1.06l3.31-4.48-3.1-4.23h1.06l2.62,3.56,2.61-3.56h.99l-3.08,4.2,3.32,4.5h-1.07Z"/>
        <path class="cls-1" d="M317.79,301.94h.92v8.71h-.92v-8.71Z"/>
        <path class="cls-1" d="M321.08,306.3c0-2.55,1.94-4.43,4.56-4.43,1.27,0,2.41.42,3.18,1.27l-.58.58c-.71-.72-1.58-1.03-2.57-1.03-2.1,0-3.68,1.54-3.68,3.61s1.58,3.61,3.68,3.61c1,0,1.87-.31,2.57-1.04l.58.58c-.77.85-1.92,1.28-3.2,1.28-2.61,0-4.55-1.88-4.55-4.43Z"/>
        <path class="cls-1" d="M330.15,306.3c0-2.54,1.94-4.43,4.58-4.43s4.56,1.88,4.56,4.43-1.95,4.43-4.56,4.43-4.58-1.89-4.58-4.43ZM338.37,306.3c0-2.08-1.55-3.61-3.64-3.61s-3.67,1.53-3.67,3.61,1.57,3.61,3.67,3.61,3.64-1.53,3.64-3.61Z"/>
      </g>
      <path class="cls-1" d="M281.84,306.19c0-.14.03-.28.08-.41.05-.13.13-.24.22-.33.1-.09.21-.17.33-.22.13-.05.26-.08.41-.08s.28.03.41.08c.13.06.24.13.34.22.1.09.17.21.23.33.05.13.08.27.08.41s-.03.28-.08.41c-.06.13-.13.24-.23.34-.1.1-.21.17-.34.23-.13.06-.27.08-.41.08s-.28-.03-.41-.08c-.13-.05-.24-.13-.33-.23-.09-.1-.17-.21-.22-.34-.06-.13-.08-.26-.08-.41Z"/>
    </g>
  </g>
</svg>